<svg xmlns="http://www.w3.org/2000/svg" xmlns:xlink="http://www.w3.org/1999/xlink" width="1280" height="800" viewBox="0 0 1280 800">
  <defs>
    <style>
      .cls-1 {
        fill: #fff;
      }

      .cls-2 {
        clip-path: url(#clip-path);
      }

      .cls-3 {
        opacity: 0.88;
        fill: url(#linear-gradient);
      }

      .cls-4 {
        fill: url(#linear-gradient-2);
      }

      .cls-5 {
        opacity: 0.65;
        fill: url(#linear-gradient-3);
      }

      .cls-6 {
        fill: #3f3d56;
      }

      .cls-7 {
        fill: #2f2e41;
      }

      .cls-8 {
        fill: #fbbebe;
      }

      .cls-9 {
        fill: #622ccf;
      }

      .cls-10 {
        fill: #e6e6e6;
      }
    </style>
    <clipPath id="clip-path">
      <rect id="Rectangle_542" data-name="Rectangle 542" class="cls-1" width="1280" height="800"/>
    </clipPath>
    <linearGradient id="linear-gradient" x1="0.5" y1="1" x2="0.5" gradientUnits="objectBoundingBox">
      <stop offset="0" stop-color="#2b9dff"/>
      <stop offset="1" stop-color="#a52bff"/>
    </linearGradient>
    <linearGradient id="linear-gradient-2" x1="0.628" y1="0.663" x2="1.086" y2="0.2" gradientUnits="objectBoundingBox">
      <stop offset="0" stop-color="#61048e"/>
      <stop offset="1" stop-color="#591bd5"/>
    </linearGradient>
    <linearGradient id="linear-gradient-3" x1="0.5" y1="1" x2="0.5" gradientUnits="objectBoundingBox">
      <stop offset="0" stop-color="#2baaff"/>
      <stop offset="1" stop-color="#9300ff"/>
    </linearGradient>
  </defs>
  <g id="Mask_Group_1" data-name="Mask Group 1" class="cls-2">
    <g id="Group_25" data-name="Group 25">
      <path id="Polygon_2" data-name="Polygon 2" class="cls-3" d="M351.105,843.8c71.581,124.052,250.625,124.052,322.207,0L999.241,278.961C1070.793,154.961,981.3,0,838.141,0H186.276C43.113,0-46.379,154.961,25.176,278.961Z" transform="matrix(0.358, -0.934, 0.934, 0.358, -385.766, 683.458)"/>
      <path id="Polygon_1" data-name="Polygon 1" class="cls-4" d="M383.236,824.5c48.882,84.668,171.089,84.668,219.971,0l366.031-634C1018.122,105.832,957.022,0,859.253,0H127.19C29.422,0-31.678,105.832,17.2,190.5Z" transform="matrix(0.358, -0.934, 0.934, 0.358, -299.546, 695.089)"/>
      <g id="Group_105" data-name="Group 105" transform="translate(-118.076 127.469)">
        <path id="Polygon_3" data-name="Polygon 3" class="cls-5" d="M.567,6.244a4.15,4.15,0,0,0,7.164,0h0A4.15,4.15,0,0,0,4.149,0h0A4.15,4.15,0,0,0,.567,6.244Z" transform="matrix(0.358, -0.934, 0.934, 0.358, 146.159, 132.636)"/>
        <path id="Polygon_12" data-name="Polygon 12" class="cls-5" d="M.567,6.244a4.15,4.15,0,0,0,7.164,0h0A4.15,4.15,0,0,0,4.149,0h0A4.15,4.15,0,0,0,.567,6.244Z" transform="matrix(0.358, -0.934, 0.934, 0.358, 48.445, 132.636)"/>
        <path id="Polygon_4" data-name="Polygon 4" class="cls-5" d="M.567,6.244a4.15,4.15,0,0,0,7.164,0h0A4.15,4.15,0,0,0,4.149,0h0A4.15,4.15,0,0,0,.567,6.244Z" transform="matrix(0.358, -0.934, 0.934, 0.358, 146.159, 92.231)"/>
        <path id="Polygon_13" data-name="Polygon 13" class="cls-5" d="M.567,6.244a4.15,4.15,0,0,0,7.164,0h0A4.15,4.15,0,0,0,4.149,0h0A4.15,4.15,0,0,0,.567,6.244Z" transform="matrix(0.358, -0.934, 0.934, 0.358, 48.445, 92.231)"/>
        <path id="Polygon_5" data-name="Polygon 5" class="cls-5" d="M.567,6.244a4.15,4.15,0,0,0,7.164,0h0A4.15,4.15,0,0,0,4.149,0h0A4.15,4.15,0,0,0,.567,6.244Z" transform="matrix(0.358, -0.934, 0.934, 0.358, 146.159, 48.887)"/>
        <path id="Polygon_16" data-name="Polygon 16" class="cls-5" d="M.567,6.244a4.15,4.15,0,0,0,7.164,0h0A4.15,4.15,0,0,0,4.149,0h0A4.15,4.15,0,0,0,.567,6.244Z" transform="matrix(0.358, -0.934, 0.934, 0.358, 48.445, 48.887)"/>
        <path id="Polygon_6" data-name="Polygon 6" class="cls-5" d="M.567,6.244a4.15,4.15,0,0,0,7.164,0h0A4.15,4.15,0,0,0,4.149,0h0A4.15,4.15,0,0,0,.567,6.244Z" transform="matrix(0.358, -0.934, 0.934, 0.358, 146.159, 7.747)"/>
        <path id="Polygon_17" data-name="Polygon 17" class="cls-5" d="M.567,6.244a4.15,4.15,0,0,0,7.164,0h0A4.15,4.15,0,0,0,4.149,0h0A4.15,4.15,0,0,0,.567,6.244Z" transform="matrix(0.358, -0.934, 0.934, 0.358, 48.445, 7.747)"/>
        <path id="Polygon_7" data-name="Polygon 7" class="cls-5" d="M.567,6.244a4.15,4.15,0,0,0,7.164,0h0A4.15,4.15,0,0,0,4.149,0h0A4.15,4.15,0,0,0,.567,6.244Z" transform="matrix(0.358, -0.934, 0.934, 0.358, 97.715, 7.747)"/>
        <path id="Polygon_18" data-name="Polygon 18" class="cls-5" d="M.567,6.244a4.15,4.15,0,0,0,7.164,0h0A4.15,4.15,0,0,0,4.149,0h0A4.15,4.15,0,0,0,.567,6.244Z" transform="matrix(0.358, -0.934, 0.934, 0.358, 0, 7.747)"/>
        <path id="Polygon_8" data-name="Polygon 8" class="cls-5" d="M.567,6.244a4.15,4.15,0,0,0,7.164,0h0A4.15,4.15,0,0,0,4.149,0h0A4.15,4.15,0,0,0,.567,6.244Z" transform="matrix(0.358, -0.934, 0.934, 0.358, 97.715, 48.887)"/>
        <path id="Polygon_15" data-name="Polygon 15" class="cls-5" d="M.567,6.244a4.15,4.15,0,0,0,7.164,0h0A4.15,4.15,0,0,0,4.149,0h0A4.15,4.15,0,0,0,.567,6.244Z" transform="matrix(0.358, -0.934, 0.934, 0.358, 0, 48.887)"/>
        <path id="Polygon_9" data-name="Polygon 9" class="cls-5" d="M.567,6.244a4.15,4.15,0,0,0,7.164,0h0A4.15,4.15,0,0,0,4.149,0h0A4.15,4.15,0,0,0,.567,6.244Z" transform="matrix(0.358, -0.934, 0.934, 0.358, 97.715, 92.231)"/>
        <path id="Polygon_14" data-name="Polygon 14" class="cls-5" d="M.567,6.244a4.15,4.15,0,0,0,7.164,0h0A4.15,4.15,0,0,0,4.149,0h0A4.15,4.15,0,0,0,.567,6.244Z" transform="matrix(0.358, -0.934, 0.934, 0.358, 0, 92.231)"/>
        <path id="Polygon_10" data-name="Polygon 10" class="cls-5" d="M.567,6.244a4.15,4.15,0,0,0,7.164,0h0A4.15,4.15,0,0,0,4.149,0h0A4.15,4.15,0,0,0,.567,6.244Z" transform="matrix(0.358, -0.934, 0.934, 0.358, 97.715, 132.636)"/>
        <path id="Polygon_11" data-name="Polygon 11" class="cls-5" d="M.567,6.244a4.15,4.15,0,0,0,7.164,0h0A4.15,4.15,0,0,0,4.149,0h0A4.15,4.15,0,0,0,.567,6.244Z" transform="matrix(0.358, -0.934, 0.934, 0.358, 0, 132.636)"/>
      </g>
      <g id="Group_106" data-name="Group 106" transform="translate(-140.076 148.469)">
        <path id="Polygon_3-2" data-name="Polygon 3" class="cls-5" d="M.567,6.244a4.15,4.15,0,0,0,7.164,0h0A4.15,4.15,0,0,0,4.149,0h0A4.15,4.15,0,0,0,.567,6.244Z" transform="matrix(0.358, -0.934, 0.934, 0.358, 146.159, 132.636)"/>
        <path id="Polygon_12-2" data-name="Polygon 12" class="cls-5" d="M.567,6.244a4.15,4.15,0,0,0,7.164,0h0A4.15,4.15,0,0,0,4.149,0h0A4.15,4.15,0,0,0,.567,6.244Z" transform="matrix(0.358, -0.934, 0.934, 0.358, 48.445, 132.636)"/>
        <path id="Polygon_4-2" data-name="Polygon 4" class="cls-5" d="M.567,6.244a4.15,4.15,0,0,0,7.164,0h0A4.15,4.15,0,0,0,4.149,0h0A4.15,4.15,0,0,0,.567,6.244Z" transform="matrix(0.358, -0.934, 0.934, 0.358, 146.159, 92.231)"/>
        <path id="Polygon_13-2" data-name="Polygon 13" class="cls-5" d="M.567,6.244a4.15,4.15,0,0,0,7.164,0h0A4.15,4.15,0,0,0,4.149,0h0A4.15,4.15,0,0,0,.567,6.244Z" transform="matrix(0.358, -0.934, 0.934, 0.358, 48.445, 92.231)"/>
        <path id="Polygon_5-2" data-name="Polygon 5" class="cls-5" d="M.567,6.244a4.15,4.15,0,0,0,7.164,0h0A4.15,4.15,0,0,0,4.149,0h0A4.15,4.15,0,0,0,.567,6.244Z" transform="matrix(0.358, -0.934, 0.934, 0.358, 146.159, 48.887)"/>
        <path id="Polygon_16-2" data-name="Polygon 16" class="cls-5" d="M.567,6.244a4.15,4.15,0,0,0,7.164,0h0A4.15,4.15,0,0,0,4.149,0h0A4.15,4.15,0,0,0,.567,6.244Z" transform="matrix(0.358, -0.934, 0.934, 0.358, 48.445, 48.887)"/>
        <path id="Polygon_6-2" data-name="Polygon 6" class="cls-5" d="M.567,6.244a4.15,4.15,0,0,0,7.164,0h0A4.15,4.15,0,0,0,4.149,0h0A4.15,4.15,0,0,0,.567,6.244Z" transform="matrix(0.358, -0.934, 0.934, 0.358, 146.159, 7.747)"/>
        <path id="Polygon_17-2" data-name="Polygon 17" class="cls-5" d="M.567,6.244a4.15,4.15,0,0,0,7.164,0h0A4.15,4.15,0,0,0,4.149,0h0A4.15,4.15,0,0,0,.567,6.244Z" transform="matrix(0.358, -0.934, 0.934, 0.358, 48.445, 7.747)"/>
        <path id="Polygon_7-2" data-name="Polygon 7" class="cls-5" d="M.567,6.244a4.15,4.15,0,0,0,7.164,0h0A4.15,4.15,0,0,0,4.149,0h0A4.15,4.15,0,0,0,.567,6.244Z" transform="matrix(0.358, -0.934, 0.934, 0.358, 97.715, 7.747)"/>
        <path id="Polygon_18-2" data-name="Polygon 18" class="cls-5" d="M.567,6.244a4.15,4.15,0,0,0,7.164,0h0A4.15,4.15,0,0,0,4.149,0h0A4.15,4.15,0,0,0,.567,6.244Z" transform="matrix(0.358, -0.934, 0.934, 0.358, 0, 7.747)"/>
        <path id="Polygon_8-2" data-name="Polygon 8" class="cls-5" d="M.567,6.244a4.15,4.15,0,0,0,7.164,0h0A4.15,4.15,0,0,0,4.149,0h0A4.15,4.15,0,0,0,.567,6.244Z" transform="matrix(0.358, -0.934, 0.934, 0.358, 97.715, 48.887)"/>
        <path id="Polygon_15-2" data-name="Polygon 15" class="cls-5" d="M.567,6.244a4.15,4.15,0,0,0,7.164,0h0A4.15,4.15,0,0,0,4.149,0h0A4.15,4.15,0,0,0,.567,6.244Z" transform="matrix(0.358, -0.934, 0.934, 0.358, 0, 48.887)"/>
        <path id="Polygon_9-2" data-name="Polygon 9" class="cls-5" d="M.567,6.244a4.15,4.15,0,0,0,7.164,0h0A4.15,4.15,0,0,0,4.149,0h0A4.15,4.15,0,0,0,.567,6.244Z" transform="matrix(0.358, -0.934, 0.934, 0.358, 97.715, 92.231)"/>
        <path id="Polygon_14-2" data-name="Polygon 14" class="cls-5" d="M.567,6.244a4.15,4.15,0,0,0,7.164,0h0A4.15,4.15,0,0,0,4.149,0h0A4.15,4.15,0,0,0,.567,6.244Z" transform="matrix(0.358, -0.934, 0.934, 0.358, 0, 92.231)"/>
        <path id="Polygon_10-2" data-name="Polygon 10" class="cls-5" d="M.567,6.244a4.15,4.15,0,0,0,7.164,0h0A4.15,4.15,0,0,0,4.149,0h0A4.15,4.15,0,0,0,.567,6.244Z" transform="matrix(0.358, -0.934, 0.934, 0.358, 97.715, 132.636)"/>
        <path id="Polygon_11-2" data-name="Polygon 11" class="cls-5" d="M.567,6.244a4.15,4.15,0,0,0,7.164,0h0A4.15,4.15,0,0,0,4.149,0h0A4.15,4.15,0,0,0,.567,6.244Z" transform="matrix(0.358, -0.934, 0.934, 0.358, 0, 132.636)"/>
      </g>
      <g id="undraw_certification_aif8" transform="translate(127.001 263.001)">
        <path id="Path_553" data-name="Path 553" class="cls-6" d="M451.939,684.825a395.678,395.678,0,0,1-53.733-3.521c-.581-.074-1.171-.157-1.756-.245-4.372-.622-8.746-1.332-13-2.112a280.747,280.747,0,0,1-53.633-15.192c-54.752-21.9-89.177-17.24-108.414-9.473-20.819,8.406-28.822,22.157-28.9,22.3l-.685-.389c.079-.14,8.186-14.1,29.232-22.613,12.34-4.993,26.655-7.175,42.552-6.488,19.843.859,42.219,6.221,66.509,15.937a280,280,0,0,0,53.483,15.149c4.242.778,8.606,1.487,12.97,2.107.583.087,1.167.169,1.747.243,48.278,6.641,94.853,2.636,125.423-1.892a402.274,402.274,0,0,0,41.575-8.141l.206.76a402.778,402.778,0,0,1-41.666,8.16,496.454,496.454,0,0,1-71.909,5.415Z" transform="translate(-191.819 -397.232)"/>
        <path id="Path_554" data-name="Path 554" class="cls-6" d="M451.992,206.977c-13.88,0-27.393-.649-40.431-1.948-29.959-2.984-57.461-9.421-81.744-19.134-54.752-21.9-89.177-17.24-108.415-9.473-20.819,8.405-28.822,22.157-28.9,22.295l-.685-.389c.079-.14,8.186-14.1,29.232-22.613,12.34-4.993,26.655-7.177,42.552-6.488,19.843.859,42.219,6.221,66.509,15.937,54.838,21.936,115.86,22.8,157.395,19.661,45.019-3.4,77.48-12.107,77.8-12.194l.206.76c-.323.088-32.843,8.81-77.932,12.218C475.509,206.52,463.621,206.977,451.992,206.977Z" transform="translate(-191.819 -145.369)"/>
        <path id="Path_555" data-name="Path 555" class="cls-7" d="M680.949,122.726s-15.48-5.528-25.431,16.586-25.431,46.439-25.431,46.439l8.846,2.211s2.211-15.48,7.74-17.691l-2.211,19.9s66.342,23.22,96.2-2.211l-1.106-7.74s4.423,1.106,4.423,7.74l3.317-3.317s-3.317-6.634-13.268-15.48c-6.532-5.806-8.776-16.851-9.547-23.757a28.75,28.75,0,0,0-6.619-15.656C711.243,122.088,699.193,113.943,680.949,122.726Z" transform="translate(-422.814 -118.919)"/>
        <path id="Path_556" data-name="Path 556" class="cls-8" d="M891.856,391.56s29.13,24.846,33.413,39.411-16.278,16.278-16.278,16.278l-44.552,4.284s-.857,20.562-8.568,23.132-1.565-34-1.565-34L897.853,428.4l-19.705-20.562Z" transform="translate(-539.769 -262.618)"/>
        <path id="Path_557" data-name="Path 557" class="cls-8" d="M614.02,445.907l-3.427,45.408-18.848,77.108s-17.135,35.127-2.57,35.984,13.708-33.413,13.708-33.413L630.3,498.169l2.57-49.692Z" transform="translate(-398.158 -291.263)"/>
        <circle id="Ellipse_23" data-name="Ellipse 23" class="cls-8" cx="28.273" cy="28.273" r="28.273" transform="translate(235.567 18.42)"/>
        <path id="Path_558" data-name="Path 558" class="cls-8" d="M712.633,246.635s10.281,36.841-6,46.265,41.124,16.278,56.546-11.995c0,0-27.416-9.424-19.705-34.27Z" transform="translate(-461.644 -186.234)"/>
        <path id="Path_559" data-name="Path 559" class="cls-9" d="M661.762,351.607l-5.141-1.714s-10.281,4.284-10.281,11.995-1.714,38.554-1.714,38.554l23.132,2.57Z" transform="translate(-430.478 -240.658)"/>
        <path id="Path_560" data-name="Path 560" class="cls-7" d="M753.855,626.454c-31.628,4.685-77.725,8.469-125.531,1.894,0-.472,0-.933,0-1.382q0-4.01.307-7.93c2.449-32.175,19.025-59,25.438-68.3.323-.472.622-.9.89-1.276,1.036-1.453,1.638-2.221,1.638-2.221s49.692-.811,75.394,9.469a11.057,11.057,0,0,1,3.347,2.189C744.917,567.746,750.547,596.457,753.855,626.454Z" transform="translate(-421.883 -344.666)"/>
        <path id="Path_561" data-name="Path 561" class="cls-9" d="M849.039,326.6s11.138-6,22.276,6.854l22.276,25.7L876.455,378,843.9,358.3Z" transform="translate(-535.507 -227.642)"/>
        <path id="Path_562" data-name="Path 562" class="cls-7" d="M683.961,180.5c10.009-7.244,18.111-15.587,23.47-25.511,0,0,18.368,20.409,29.593,21.429s1.02-24.491,1.02-24.491l-20.409-5.1-19.388,2.041-15.307,10.2Z" transform="translate(-450.672 -133.628)"/>
        <path id="Path_563" data-name="Path 563" class="cls-9" d="M741.1,315.474s-11.99,18.957-47.976,9.907L672.7,331.005l-2.714.747s2.57,51.405,9.424,60.83,5.141,14.565,3.427,15.422-6-.857-3.427,3.427,6,1.713,2.57,4.284-5.141,11.995-5.141,11.995l80.535,10.281s-2.57-33.413,4.284-50.548,8.568-23.989,8.568-23.989l-5.14-42.838Z" transform="translate(-443.845 -222.516)"/>
        <rect id="Rectangle_535" data-name="Rectangle 535" class="cls-10" width="110.242" height="137.803" transform="translate(19.634 76.185)"/>
        <rect id="Rectangle_536" data-name="Rectangle 536" class="cls-1" width="23.623" height="15.749" transform="translate(27.312 87.8)"/>
        <rect id="Rectangle_537" data-name="Rectangle 537" class="cls-1" width="91.344" height="5.512" transform="translate(27.509 118.511)"/>
        <rect id="Rectangle_538" data-name="Rectangle 538" class="cls-1" width="91.344" height="5.512" transform="translate(27.509 133.079)"/>
        <rect id="Rectangle_539" data-name="Rectangle 539" class="cls-1" width="91.344" height="5.512" transform="translate(27.509 147.647)"/>
        <rect id="Rectangle_540" data-name="Rectangle 540" class="cls-1" width="91.344" height="5.512" transform="translate(27.509 162.214)"/>
        <rect id="Rectangle_541" data-name="Rectangle 541" class="cls-1" width="91.344" height="5.512" transform="translate(27.509 176.782)"/>
        <path id="Path_564" data-name="Path 564" class="cls-9" d="M464.092,546.881a21.594,21.594,0,1,1-3.347-11.568A21.594,21.594,0,0,1,464.092,546.881Z" transform="translate(-312.56 -333.089)"/>
        <path id="Path_565" data-name="Path 565" class="cls-1" d="M471.583,542.919l-21.316,21.312c-1.34-2.074-8.8-11.713-8.8-11.713a30.21,30.21,0,0,1,3.055-2.7l6.189,8.253,18.379-18.379A21.565,21.565,0,0,1,471.583,542.919Z" transform="translate(-323.398 -340.695)"/>
      </g>
    </g>
  </g>
</svg>
