<svg xmlns="http://www.w3.org/2000/svg" xmlns:xlink="http://www.w3.org/1999/xlink" width="375" height="449" viewBox="0 0 375 449">
  <defs>
    <style>
      .cls-1, .cls-29 {
        fill: #fff;
      }

      .cls-2 {
        clip-path: url(#clip-path);
      }

      .cls-3 {
        opacity: 0.7;
        mix-blend-mode: color-dodge;
        isolation: isolate;
      }

      .cls-4 {
        fill: url(#radial-gradient);
      }

      .cls-5 {
        opacity: 0.88;
        fill: url(#linear-gradient);
      }

      .cls-6 {
        fill: url(#linear-gradient-2);
      }

      .cls-7 {
        opacity: 0.1;
      }

      .cls-8 {
        fill: #d1d3d4;
      }

      .cls-9 {
        fill: #f1f2f2;
      }

      .cls-10 {
        fill: url(#linear-gradient-3);
      }

      .cls-11 {
        fill: url(#linear-gradient-4);
      }

      .cls-12 {
        fill: url(#linear-gradient-5);
      }

      .cls-13 {
        fill: url(#linear-gradient-6);
      }

      .cls-14 {
        fill: url(#linear-gradient-7);
      }

      .cls-15 {
        fill: url(#linear-gradient-8);
      }

      .cls-16 {
        fill: url(#linear-gradient-9);
      }

      .cls-17 {
        fill: url(#linear-gradient-10);
      }

      .cls-18 {
        fill: url(#linear-gradient-11);
      }

      .cls-19 {
        fill: url(#linear-gradient-12);
      }

      .cls-20 {
        fill: url(#linear-gradient-13);
      }

      .cls-21 {
        fill: url(#linear-gradient-14);
      }

      .cls-22 {
        fill: url(#linear-gradient-15);
      }

      .cls-23 {
        fill: url(#linear-gradient-16);
      }

      .cls-24 {
        fill: url(#radial-gradient-2);
      }

      .cls-25 {
        fill: url(#linear-gradient-19);
      }

      .cls-26 {
        fill: url(#linear-gradient-20);
      }

      .cls-27 {
        fill: url(#linear-gradient-22);
      }

      .cls-28 {
        fill: url(#linear-gradient-23);
      }

      .cls-29 {
        opacity: 0.3;
      }

      .cls-30 {
        fill: url(#radial-gradient-3);
      }

      .cls-31 {
        fill: url(#linear-gradient-24);
      }

      .cls-32 {
        fill: url(#linear-gradient-25);
      }

      .cls-33 {
        fill: url(#linear-gradient-26);
      }

      .cls-34 {
        fill: url(#linear-gradient-27);
      }

      .cls-35 {
        fill: url(#linear-gradient-28);
      }

      .cls-36 {
        fill: url(#linear-gradient-29);
      }

      .cls-37 {
        fill: url(#radial-gradient-4);
      }

      .cls-38 {
        fill: url(#linear-gradient-30);
      }

      .cls-39 {
        fill: url(#linear-gradient-31);
      }

      .cls-40 {
        fill: url(#linear-gradient-32);
      }

      .cls-41 {
        fill: url(#linear-gradient-33);
      }

      .cls-42 {
        fill: url(#linear-gradient-34);
      }

      .cls-43 {
        fill: url(#linear-gradient-35);
      }

      .cls-44 {
        fill: url(#linear-gradient-36);
      }

      .cls-45 {
        fill: url(#linear-gradient-37);
      }

      .cls-46 {
        fill: url(#linear-gradient-38);
      }

      .cls-47 {
        fill: url(#linear-gradient-39);
      }

      .cls-48 {
        fill: url(#linear-gradient-40);
      }

      .cls-49 {
        fill: url(#linear-gradient-41);
      }

      .cls-50 {
        fill: url(#linear-gradient-42);
      }

      .cls-51 {
        fill: url(#radial-gradient-5);
      }

      .cls-52 {
        fill: url(#linear-gradient-43);
      }

      .cls-53 {
        fill: url(#radial-gradient-6);
      }

      .cls-54 {
        fill: url(#linear-gradient-44);
      }

      .cls-55 {
        fill: url(#linear-gradient-45);
      }

      .cls-56 {
        fill: url(#linear-gradient-46);
      }

      .cls-57 {
        fill: url(#linear-gradient-47);
      }

      .cls-58 {
        fill: url(#linear-gradient-48);
      }

      .cls-59 {
        fill: url(#radial-gradient-7);
      }

      .cls-60 {
        fill: url(#linear-gradient-49);
      }

      .cls-61 {
        fill: url(#linear-gradient-50);
      }

      .cls-62 {
        fill: url(#linear-gradient-51);
      }

      .cls-63 {
        fill: url(#radial-gradient-8);
      }

      .cls-64 {
        fill: url(#linear-gradient-52);
      }

      .cls-65 {
        fill: url(#linear-gradient-53);
      }

      .cls-66 {
        fill: url(#radial-gradient-9);
      }

      .cls-67 {
        fill: url(#linear-gradient-54);
      }

      .cls-68 {
        fill: url(#linear-gradient-56);
      }

      .cls-69 {
        fill: url(#linear-gradient-57);
      }

      .cls-70 {
        fill: url(#linear-gradient-58);
      }

      .cls-71 {
        fill: url(#radial-gradient-10);
      }

      .cls-72 {
        fill: url(#linear-gradient-60);
      }

      .cls-73 {
        fill: url(#linear-gradient-61);
      }

      .cls-74 {
        fill: url(#linear-gradient-62);
      }

      .cls-75 {
        fill: url(#linear-gradient-63);
      }

      .cls-76 {
        fill: url(#radial-gradient-11);
      }

      .cls-77 {
        fill: url(#linear-gradient-64);
      }

      .cls-78 {
        fill: url(#linear-gradient-65);
      }

      .cls-79 {
        fill: url(#linear-gradient-66);
      }

      .cls-80 {
        fill: url(#linear-gradient-67);
      }

      .cls-81 {
        fill: url(#linear-gradient-68);
      }

      .cls-82 {
        fill: url(#linear-gradient-69);
      }

      .cls-83 {
        fill: url(#linear-gradient-70);
      }

      .cls-84 {
        fill: url(#linear-gradient-71);
      }

      .cls-85 {
        fill: url(#linear-gradient-72);
      }

      .cls-86 {
        fill: url(#linear-gradient-73);
      }

      .cls-87 {
        fill: url(#radial-gradient-12);
      }

      .cls-88 {
        fill: url(#linear-gradient-74);
      }

      .cls-89 {
        fill: url(#linear-gradient-75);
      }

      .cls-90 {
        fill: url(#linear-gradient-78);
      }

      .cls-91 {
        fill: url(#linear-gradient-81);
      }

      .cls-92 {
        fill: url(#linear-gradient-82);
      }

      .cls-93 {
        fill: url(#linear-gradient-83);
      }

      .cls-94 {
        fill: url(#linear-gradient-84);
      }

      .cls-95 {
        fill: url(#linear-gradient-85);
      }

      .cls-96 {
        fill: url(#linear-gradient-86);
      }

      .cls-97 {
        fill: url(#linear-gradient-87);
      }

      .cls-98 {
        fill: url(#linear-gradient-88);
      }

      .cls-99 {
        fill: url(#linear-gradient-89);
      }

      .cls-100 {
        fill: url(#linear-gradient-90);
      }

      .cls-101 {
        fill: url(#linear-gradient-91);
      }

      .cls-102 {
        fill: url(#linear-gradient-92);
      }

      .cls-103 {
        fill: url(#linear-gradient-93);
      }

      .cls-104 {
        fill: url(#radial-gradient-13);
      }

      .cls-105 {
        fill: url(#linear-gradient-94);
      }

      .cls-106 {
        fill: url(#linear-gradient-95);
      }

      .cls-107 {
        fill: url(#linear-gradient-96);
      }

      .cls-108 {
        fill: url(#linear-gradient-97);
      }

      .cls-109 {
        fill: url(#radial-gradient-14);
      }

      .cls-110 {
        fill: url(#linear-gradient-100);
      }

      .cls-111 {
        fill: url(#linear-gradient-102);
      }

      .cls-112 {
        fill: url(#radial-gradient-15);
      }

      .cls-113 {
        fill: url(#linear-gradient-104);
      }

      .cls-114 {
        fill: url(#linear-gradient-105);
      }

      .cls-115 {
        fill: url(#linear-gradient-106);
      }

      .cls-116 {
        fill: url(#linear-gradient-107);
      }

      .cls-117 {
        fill: url(#linear-gradient-108);
      }

      .cls-118 {
        fill: url(#linear-gradient-109);
      }

      .cls-119 {
        fill: url(#linear-gradient-110);
      }

      .cls-120 {
        fill: url(#radial-gradient-16);
      }

      .cls-121 {
        fill: url(#linear-gradient-111);
      }

      .cls-122 {
        fill: url(#linear-gradient-112);
      }

      .cls-123 {
        fill: url(#linear-gradient-113);
      }

      .cls-124 {
        fill: url(#radial-gradient-17);
      }

      .cls-125 {
        fill: url(#linear-gradient-114);
      }

      .cls-126 {
        fill: url(#radial-gradient-18);
      }

      .cls-127 {
        fill: url(#linear-gradient-118);
      }

      .cls-128 {
        fill: url(#linear-gradient-119);
      }

      .cls-129 {
        fill: url(#radial-gradient-19);
      }

      .cls-130 {
        fill: url(#linear-gradient-120);
      }

      .cls-131 {
        fill: url(#linear-gradient-121);
      }

      .cls-132 {
        fill: url(#linear-gradient-122);
      }

      .cls-133 {
        fill: url(#linear-gradient-123);
      }

      .cls-134 {
        fill: url(#radial-gradient-21);
      }

      .cls-135 {
        fill: url(#linear-gradient-128);
      }

      .cls-136 {
        fill: url(#radial-gradient-22);
      }

      .cls-137 {
        fill: url(#linear-gradient-129);
      }

      .cls-138 {
        fill: url(#linear-gradient-130);
      }

      .cls-139 {
        fill: url(#linear-gradient-131);
      }

      .cls-140 {
        fill: url(#radial-gradient-23);
      }

      .cls-141 {
        fill: url(#linear-gradient-132);
      }

      .cls-142 {
        fill: url(#linear-gradient-133);
      }

      .cls-143 {
        fill: url(#linear-gradient-134);
      }

      .cls-144 {
        fill: url(#linear-gradient-135);
      }

      .cls-145 {
        fill: url(#linear-gradient-136);
      }

      .cls-146 {
        fill: url(#linear-gradient-137);
      }

      .cls-147 {
        fill: url(#radial-gradient-24);
      }

      .cls-148 {
        fill: url(#radial-gradient-25);
      }

      .cls-149 {
        fill: url(#linear-gradient-143);
      }

      .cls-150 {
        fill: url(#linear-gradient-144);
      }

      .cls-151 {
        fill: url(#linear-gradient-145);
      }

      .cls-152 {
        fill: url(#linear-gradient-146);
      }

      .cls-153 {
        fill: url(#linear-gradient-147);
      }

      .cls-154 {
        fill: url(#linear-gradient-148);
      }

      .cls-155 {
        fill: url(#linear-gradient-149);
      }

      .cls-156 {
        fill: url(#linear-gradient-150);
      }

      .cls-157 {
        fill: url(#linear-gradient-151);
      }

      .cls-158 {
        fill: url(#linear-gradient-152);
      }

      .cls-159 {
        fill: url(#linear-gradient-153);
      }

      .cls-160 {
        fill: url(#radial-gradient-26);
      }

      .cls-161 {
        fill: url(#linear-gradient-155);
      }

      .cls-162 {
        fill: url(#linear-gradient-156);
      }

      .cls-163 {
        fill: url(#linear-gradient-157);
      }

      .cls-164 {
        fill: url(#linear-gradient-158);
      }

      .cls-165 {
        fill: url(#linear-gradient-159);
      }

      .cls-166 {
        fill: url(#linear-gradient-160);
      }

      .cls-167 {
        fill: url(#linear-gradient-161);
      }

      .cls-168 {
        fill: url(#linear-gradient-162);
      }

      .cls-169 {
        fill: url(#linear-gradient-163);
      }

      .cls-170 {
        fill: url(#radial-gradient-27);
      }

      .cls-171 {
        fill: #1c0701;
      }

      .cls-172 {
        fill: url(#linear-gradient-164);
      }

      .cls-173 {
        fill: url(#linear-gradient-165);
      }
    </style>
    <clipPath id="clip-path">
      <rect id="Rectangle_583" data-name="Rectangle 583" class="cls-1" width="375" height="449" transform="translate(0 2215)"/>
    </clipPath>
    <radialGradient id="radial-gradient" cx="0.504" cy="0.498" r="0.517" gradientTransform="matrix(-0.969, 0, 0, 0.969, -2.034, -0.018)" gradientUnits="objectBoundingBox">
      <stop offset="0" stop-color="#8900f9"/>
      <stop offset="0.18" stop-color="#7400d2" stop-opacity="0.839"/>
      <stop offset="0.58" stop-color="#3d0070" stop-opacity="0.451"/>
      <stop offset="1" stop-opacity="0"/>
    </radialGradient>
    <linearGradient id="linear-gradient" x1="0.5" x2="0.5" y2="1" gradientUnits="objectBoundingBox">
      <stop offset="0" stop-color="#2b9dff"/>
      <stop offset="1" stop-color="#a52bff"/>
    </linearGradient>
    <linearGradient id="linear-gradient-2" x1="0.485" y1="0.245" x2="0.479" y2="1.215" gradientUnits="objectBoundingBox">
      <stop offset="0" stop-color="#61048e"/>
      <stop offset="1" stop-color="#591bd5"/>
    </linearGradient>
    <linearGradient id="linear-gradient-3" x1="-41.161" y1="0.775" x2="-36.833" y2="0.212" gradientUnits="objectBoundingBox">
      <stop offset="0.04" stop-color="#271273"/>
      <stop offset="0.29" stop-color="#361d82"/>
      <stop offset="0.8" stop-color="#5d39ab"/>
      <stop offset="0.98" stop-color="#6d45bb"/>
    </linearGradient>
    <linearGradient id="linear-gradient-4" x1="-7.489" y1="0.59" x2="-5.933" y2="-0.017" xlink:href="#linear-gradient-3"/>
    <linearGradient id="linear-gradient-5" x1="-5.84" y1="-0.063" x2="-6.035" y2="0.58" xlink:href="#linear-gradient-3"/>
    <linearGradient id="linear-gradient-6" x1="-2.64" y1="0.525" x2="18.596" y2="0.353" xlink:href="#linear-gradient-3"/>
    <linearGradient id="linear-gradient-7" x1="-13.393" y1="0.583" x2="15.008" y2="0.413" xlink:href="#linear-gradient-3"/>
    <linearGradient id="linear-gradient-8" x1="0.988" y1="-1.108" x2="0.43" y2="0.73" xlink:href="#linear-gradient-3"/>
    <linearGradient id="linear-gradient-9" x1="-1.487" y1="0.527" x2="11.954" y2="0.345" gradientUnits="objectBoundingBox">
      <stop offset="0.04" stop-color="#9d9eb3"/>
      <stop offset="0.58" stop-color="#d4d1d8"/>
      <stop offset="1" stop-color="#eeebf2"/>
    </linearGradient>
    <linearGradient id="linear-gradient-10" x1="-1.104" y1="0.759" x2="2.174" y2="0.229" xlink:href="#linear-gradient-9"/>
    <linearGradient id="linear-gradient-11" x1="-1.099" y1="0.761" x2="2.17" y2="0.228" gradientUnits="objectBoundingBox">
      <stop offset="0" stop-color="#d4d1d8"/>
      <stop offset="1" stop-color="#fff"/>
    </linearGradient>
    <linearGradient id="linear-gradient-12" x1="0.578" y1="0.243" x2="0.489" y2="0.537" xlink:href="#linear-gradient-9"/>
    <linearGradient id="linear-gradient-13" x1="-102.366" y1="0.775" x2="-98.038" y2="0.212" xlink:href="#linear-gradient-3"/>
    <linearGradient id="linear-gradient-14" x1="-17.695" y1="0.59" x2="-16.138" y2="-0.017" xlink:href="#linear-gradient-3"/>
    <linearGradient id="linear-gradient-15" x1="-14.59" y1="-0.063" x2="-14.785" y2="0.58" xlink:href="#linear-gradient-3"/>
    <linearGradient id="linear-gradient-16" x1="-2.65" y1="0.526" x2="18.642" y2="0.353" xlink:href="#linear-gradient-3"/>
    <radialGradient id="radial-gradient-2" cx="40.194" cy="0.326" r="0.354" gradientTransform="translate(-95.923) scale(192.847 1)" gradientUnits="objectBoundingBox">
      <stop offset="0" stop-color="#fff"/>
      <stop offset="1"/>
    </radialGradient>
    <linearGradient id="linear-gradient-19" x1="0.503" y1="-0.326" x2="0.5" y2="0.452" gradientUnits="objectBoundingBox">
      <stop offset="0.01" stop-color="#2af6ff"/>
      <stop offset="1" stop-color="#4e00d4"/>
    </linearGradient>
    <linearGradient id="linear-gradient-20" y1="0.5" x2="1" y2="0.5" gradientUnits="objectBoundingBox">
      <stop offset="0.01" stop-color="#dc3daa"/>
      <stop offset="1" stop-color="#4e00d4"/>
    </linearGradient>
    <linearGradient id="linear-gradient-22" y1="0.501" x2="1" y2="0.501" gradientUnits="objectBoundingBox">
      <stop offset="0.09" stop-color="#10054d"/>
      <stop offset="0.89" stop-color="#270656"/>
    </linearGradient>
    <linearGradient id="linear-gradient-23" x1="0.278" y1="1.054" x2="0.977" y2="-0.119" gradientUnits="objectBoundingBox">
      <stop offset="0.04" stop-color="#6b24d6"/>
      <stop offset="0.29" stop-color="#7733dc"/>
      <stop offset="0.79" stop-color="#975ced"/>
      <stop offset="1" stop-color="#a56ef4"/>
    </linearGradient>
    <radialGradient id="radial-gradient-3" cx="0.954" cy="0.463" r="0.512" gradientTransform="translate(0.023) scale(0.954 1)" xlink:href="#radial-gradient-2"/>
    <linearGradient id="linear-gradient-24" x1="0.308" y1="0.574" x2="1.481" y2="-0.089" xlink:href="#linear-gradient-23"/>
    <linearGradient id="linear-gradient-25" x1="0.187" y1="0.639" x2="2.303" y2="-0.304" xlink:href="#linear-gradient-23"/>
    <linearGradient id="linear-gradient-26" x1="-0.859" y1="0.95" x2="1.918" y2="0.029" xlink:href="#linear-gradient-23"/>
    <linearGradient id="linear-gradient-27" x1="0.187" y1="0.639" x2="2.303" y2="-0.304" gradientUnits="objectBoundingBox">
      <stop offset="0.04" stop-color="#9f19ab"/>
      <stop offset="0.24" stop-color="#ae25b1"/>
      <stop offset="0.65" stop-color="#d744bf"/>
      <stop offset="1" stop-color="#ff63ce"/>
    </linearGradient>
    <linearGradient id="linear-gradient-28" x1="-0.859" y1="0.951" x2="1.918" y2="0.029" xlink:href="#linear-gradient-23"/>
    <linearGradient id="linear-gradient-29" x1="0.995" y1="-1.12" x2="0.43" y2="0.73" xlink:href="#linear-gradient-23"/>
    <radialGradient id="radial-gradient-4" cx="0.605" cy="0.828" r="1.203" gradientTransform="translate(0.224) scale(0.552 1)" xlink:href="#radial-gradient-2"/>
    <linearGradient id="linear-gradient-30" x1="0" y1="0.499" x2="1.003" y2="0.499" xlink:href="#linear-gradient-22"/>
    <linearGradient id="linear-gradient-31" x1="0.372" y1="0.701" x2="0.614" y2="-0.111" xlink:href="#linear-gradient-23"/>
    <linearGradient id="linear-gradient-32" x1="0.567" y1="0.596" x2="-0.886" y2="1.315" xlink:href="#linear-gradient-9"/>
    <linearGradient id="linear-gradient-33" x1="67.096" y1="-72.367" x2="68.125" y2="-72.367" gradientUnits="objectBoundingBox">
      <stop offset="0.01" stop-color="#f9b69e"/>
      <stop offset="0.81" stop-color="#fdd7c2"/>
      <stop offset="1" stop-color="#fedfcb"/>
    </linearGradient>
    <linearGradient id="linear-gradient-34" x1="-0.001" y1="0.5" x2="1" y2="0.5" xlink:href="#linear-gradient-33"/>
    <linearGradient id="linear-gradient-35" x1="0.002" y1="0.499" x2="1.002" y2="0.499" xlink:href="#linear-gradient-11"/>
    <linearGradient id="linear-gradient-36" x1="0.126" y1="0.697" x2="1.171" y2="0.167" xlink:href="#linear-gradient-9"/>
    <linearGradient id="linear-gradient-37" x1="-140.549" y1="39.357" x2="-139.613" y2="39.357" xlink:href="#linear-gradient-11"/>
    <linearGradient id="linear-gradient-38" x1="0.171" y1="0.753" x2="0.861" y2="0.159" gradientUnits="objectBoundingBox">
      <stop offset="0.04" stop-color="#602213"/>
      <stop offset="0.57" stop-color="#6d310e"/>
      <stop offset="1" stop-color="#7a4108"/>
    </linearGradient>
    <linearGradient id="linear-gradient-39" x1="0.914" y1="1.486" x2="0.244" y2="-0.055" xlink:href="#linear-gradient-9"/>
    <linearGradient id="linear-gradient-40" x1="0.166" y1="0.518" x2="2.426" y2="0.397" xlink:href="#linear-gradient-23"/>
    <linearGradient id="linear-gradient-41" x1="-0.808" y1="0.678" x2="1.874" y2="0.313" xlink:href="#linear-gradient-23"/>
    <linearGradient id="linear-gradient-42" x1="0.611" y1="0.137" x2="0.484" y2="0.552" xlink:href="#linear-gradient-23"/>
    <radialGradient id="radial-gradient-5" cx="0.595" cy="0.599" r="0.499" gradientTransform="translate(-0.002)" xlink:href="#radial-gradient-2"/>
    <linearGradient id="linear-gradient-43" x1="0.278" y1="1.054" x2="0.977" y2="-0.117" xlink:href="#linear-gradient-23"/>
    <radialGradient id="radial-gradient-6" cx="0.953" cy="0.464" r="0.512" gradientTransform="translate(0.023) scale(0.954 1)" xlink:href="#radial-gradient-2"/>
    <linearGradient id="linear-gradient-44" x1="0.187" y1="0.639" x2="2.302" y2="-0.304" xlink:href="#linear-gradient-23"/>
    <linearGradient id="linear-gradient-45" x1="-0.858" y1="0.951" x2="1.918" y2="0.029" xlink:href="#linear-gradient-23"/>
    <linearGradient id="linear-gradient-46" x1="0.187" y1="0.64" x2="2.302" y2="-0.304" xlink:href="#linear-gradient-23"/>
    <linearGradient id="linear-gradient-47" x1="-0.858" y1="0.951" x2="1.918" y2="0.029" xlink:href="#linear-gradient-23"/>
    <linearGradient id="linear-gradient-48" x1="0.995" y1="-1.12" x2="0.43" y2="0.73" xlink:href="#linear-gradient-23"/>
    <radialGradient id="radial-gradient-7" cx="0.605" cy="0.829" r="1.203" gradientTransform="translate(0.224) scale(0.552 1)" xlink:href="#radial-gradient-2"/>
    <linearGradient id="linear-gradient-49" x1="0.166" y1="0.518" x2="2.428" y2="0.397" xlink:href="#linear-gradient-23"/>
    <linearGradient id="linear-gradient-50" x1="-0.808" y1="0.678" x2="1.874" y2="0.313" xlink:href="#linear-gradient-23"/>
    <linearGradient id="linear-gradient-51" x1="0.611" y1="0.137" x2="0.484" y2="0.552" xlink:href="#linear-gradient-23"/>
    <radialGradient id="radial-gradient-8" cx="0.595" cy="0.599" r="0.499" gradientTransform="translate(-0.003) scale(1.005 1)" xlink:href="#radial-gradient-2"/>
    <linearGradient id="linear-gradient-52" x1="0" y1="0.5" x2="1" y2="0.5" xlink:href="#linear-gradient-22"/>
    <linearGradient id="linear-gradient-53" x1="0.278" y1="1.053" x2="0.977" y2="-0.119" xlink:href="#linear-gradient-23"/>
    <radialGradient id="radial-gradient-9" cx="0.953" cy="0.464" r="0.512" gradientTransform="translate(0.023) scale(0.954 1)" xlink:href="#radial-gradient-2"/>
    <linearGradient id="linear-gradient-54" x1="0.308" y1="0.574" x2="1.481" y2="-0.089" xlink:href="#linear-gradient-23"/>
    <linearGradient id="linear-gradient-56" x1="-0.858" y1="0.951" x2="1.918" y2="0.029" xlink:href="#linear-gradient-23"/>
    <linearGradient id="linear-gradient-57" x1="0.187" y1="0.64" x2="2.303" y2="-0.304" xlink:href="#linear-gradient-23"/>
    <linearGradient id="linear-gradient-58" x1="-0.858" y1="0.951" x2="1.918" y2="0.029" xlink:href="#linear-gradient-23"/>
    <radialGradient id="radial-gradient-10" cx="0.605" cy="0.829" r="1.203" gradientTransform="translate(0.224) scale(0.552 1)" xlink:href="#radial-gradient-2"/>
    <linearGradient id="linear-gradient-60" x1="0" y1="0.5" x2="1.003" y2="0.5" xlink:href="#linear-gradient-22"/>
    <linearGradient id="linear-gradient-61" x1="0.372" y1="0.702" x2="0.614" y2="-0.11" xlink:href="#linear-gradient-23"/>
    <linearGradient id="linear-gradient-62" x1="0.568" y1="0.596" x2="-0.884" y2="1.315" gradientUnits="objectBoundingBox">
      <stop offset="0.04" stop-color="#138bbd"/>
      <stop offset="0.23" stop-color="#169ac7"/>
      <stop offset="0.59" stop-color="#1fc3df"/>
      <stop offset="1" stop-color="#2af6ff"/>
    </linearGradient>
    <linearGradient id="linear-gradient-63" x1="-57.02" y1="59.588" x2="-56.036" y2="59.588" xlink:href="#linear-gradient-33"/>
    <radialGradient id="radial-gradient-11" cx="0.777" cy="0.506" r="0.519" gradientTransform="translate(-0.195) scale(1.39 1)" gradientUnits="objectBoundingBox">
      <stop offset="0.03" stop-color="#fedfcb"/>
      <stop offset="1" stop-color="#f9b69e"/>
    </radialGradient>
    <linearGradient id="linear-gradient-64" x1="0.004" y1="0.501" x2="1.004" y2="0.501" xlink:href="#linear-gradient-11"/>
    <linearGradient id="linear-gradient-65" x1="0.128" y1="0.697" x2="1.172" y2="0.167" xlink:href="#linear-gradient-62"/>
    <linearGradient id="linear-gradient-66" x1="-391.331" y1="210.899" x2="-390.672" y2="210.899" xlink:href="#linear-gradient-11"/>
    <linearGradient id="linear-gradient-67" x1="0.175" y1="0.749" x2="0.906" y2="0.116" gradientUnits="objectBoundingBox">
      <stop offset="0.04" stop-color="#ffa98c"/>
      <stop offset="0.4" stop-color="#feb77d"/>
      <stop offset="1" stop-color="#fdd65b"/>
    </linearGradient>
    <linearGradient id="linear-gradient-68" x1="0.5" y1="1.595" x2="0.5" y2="-0.074" xlink:href="#linear-gradient-62"/>
    <linearGradient id="linear-gradient-69" x1="0.166" y1="0.518" x2="2.426" y2="0.397" xlink:href="#linear-gradient-23"/>
    <linearGradient id="linear-gradient-70" x1="-0.808" y1="0.678" x2="1.874" y2="0.313" xlink:href="#linear-gradient-23"/>
    <linearGradient id="linear-gradient-71" x1="0.611" y1="0.137" x2="0.484" y2="0.552" xlink:href="#linear-gradient-23"/>
    <linearGradient id="linear-gradient-72" x1="0" y1="0.5" x2="1" y2="0.5" xlink:href="#linear-gradient-23"/>
    <linearGradient id="linear-gradient-73" x1="0.278" y1="1.054" x2="0.977" y2="-0.114" xlink:href="#linear-gradient-23"/>
    <radialGradient id="radial-gradient-12" cx="0.953" cy="0.463" r="0.512" gradientTransform="translate(0.023) scale(0.954 1)" xlink:href="#radial-gradient-2"/>
    <linearGradient id="linear-gradient-74" x1="0" y1="0.5" x2="1" y2="0.5" xlink:href="#linear-gradient-22"/>
    <linearGradient id="linear-gradient-75" x1="0.308" y1="0.574" x2="1.481" y2="-0.089" xlink:href="#linear-gradient-22"/>
    <linearGradient id="linear-gradient-78" x1="0.187" y1="0.64" x2="2.303" y2="-0.304" xlink:href="#linear-gradient-23"/>
    <linearGradient id="linear-gradient-81" x1="0" y1="0.5" x2="1" y2="0.5" xlink:href="#linear-gradient-23"/>
    <linearGradient id="linear-gradient-82" x1="0" y1="0.5" x2="1.003" y2="0.5" xlink:href="#linear-gradient-22"/>
    <linearGradient id="linear-gradient-83" x1="0.361" y1="0.74" x2="0.603" y2="-0.072" xlink:href="#linear-gradient-22"/>
    <linearGradient id="linear-gradient-84" x1="-57.023" y1="61.185" x2="-56.039" y2="61.185" xlink:href="#linear-gradient-33"/>
    <linearGradient id="linear-gradient-85" x1="0.001" y1="0.5" x2="1" y2="0.5" xlink:href="#linear-gradient-33"/>
    <linearGradient id="linear-gradient-86" x1="0.002" y1="0.501" x2="1.002" y2="0.501" xlink:href="#linear-gradient-11"/>
    <linearGradient id="linear-gradient-87" x1="0.122" y1="0.716" x2="1.186" y2="0.175" xlink:href="#linear-gradient-23"/>
    <linearGradient id="linear-gradient-88" x1="-390.67" y1="216.107" x2="-390.012" y2="216.107" xlink:href="#linear-gradient-11"/>
    <linearGradient id="linear-gradient-89" x1="0.124" y1="0.734" x2="0.874" y2="0.136" xlink:href="#linear-gradient-38"/>
    <linearGradient id="linear-gradient-90" x1="0.635" y1="1.664" x2="0.422" y2="-0.159" xlink:href="#linear-gradient-23"/>
    <linearGradient id="linear-gradient-91" x1="0.166" y1="0.517" x2="2.426" y2="0.397" xlink:href="#linear-gradient-23"/>
    <linearGradient id="linear-gradient-92" x1="-0.808" y1="0.678" x2="1.874" y2="0.313" xlink:href="#linear-gradient-23"/>
    <linearGradient id="linear-gradient-93" x1="0.611" y1="0.137" x2="0.484" y2="0.552" xlink:href="#linear-gradient-23"/>
    <radialGradient id="radial-gradient-13" cx="0.595" cy="0.599" r="0.499" gradientTransform="translate(-0.003) scale(1.005 1)" xlink:href="#radial-gradient-2"/>
    <linearGradient id="linear-gradient-94" x1="0" y1="0.5" x2="1" y2="0.5" xlink:href="#linear-gradient-33"/>
    <linearGradient id="linear-gradient-95" x1="84.58" y1="-75.499" x2="85.571" y2="-75.499" xlink:href="#linear-gradient-22"/>
    <linearGradient id="linear-gradient-96" x1="0" y1="0.5" x2="1" y2="0.5" xlink:href="#linear-gradient-33"/>
    <linearGradient id="linear-gradient-97" x1="-0.335" y1="1.476" x2="0.528" y2="0.497" xlink:href="#linear-gradient-11"/>
    <radialGradient id="radial-gradient-14" cx="0.954" cy="0.463" r="0.512" gradientTransform="translate(0.022) scale(0.956 1)" xlink:href="#radial-gradient-2"/>
    <linearGradient id="linear-gradient-100" x1="-0.858" y1="0.951" x2="1.919" y2="0.029" xlink:href="#linear-gradient-23"/>
    <linearGradient id="linear-gradient-102" x1="-0.858" y1="0.951" x2="1.919" y2="0.029" xlink:href="#linear-gradient-23"/>
    <radialGradient id="radial-gradient-15" cx="0.605" cy="0.829" r="1.203" gradientTransform="translate(0.224) scale(0.552 1)" xlink:href="#radial-gradient-2"/>
    <linearGradient id="linear-gradient-104" x1="-0.001" y1="0.502" x2="0.999" y2="0.502" xlink:href="#linear-gradient-33"/>
    <linearGradient id="linear-gradient-105" x1="0.001" y1="0.499" x2="1.001" y2="0.499" xlink:href="#linear-gradient-22"/>
    <linearGradient id="linear-gradient-106" x1="84.459" y1="-75.304" x2="85.45" y2="-75.304" xlink:href="#linear-gradient-22"/>
    <linearGradient id="linear-gradient-107" x1="0.718" y1="0.522" x2="-1.035" y2="0.954" xlink:href="#linear-gradient-62"/>
    <linearGradient id="linear-gradient-108" x1="0.002" y1="0.5" x2="1" y2="0.5" xlink:href="#linear-gradient-33"/>
    <linearGradient id="linear-gradient-109" x1="-0.296" y1="0.857" x2="1.079" y2="0.245" xlink:href="#linear-gradient-62"/>
    <linearGradient id="linear-gradient-110" x1="0.338" y1="1.74" x2="0.514" y2="0.107" xlink:href="#linear-gradient-62"/>
    <radialGradient id="radial-gradient-16" cx="0.67" cy="0.336" r="0.476" gradientTransform="translate(-0.243 19.89) scale(1.363 1.3)" gradientUnits="objectBoundingBox">
      <stop offset="0" stop-color="#fdd65b"/>
      <stop offset="1" stop-color="#ffa98c"/>
    </radialGradient>
    <linearGradient id="linear-gradient-111" x1="0.166" y1="0.518" x2="2.43" y2="0.398" xlink:href="#linear-gradient-23"/>
    <linearGradient id="linear-gradient-112" x1="-0.808" y1="0.678" x2="1.874" y2="0.313" xlink:href="#linear-gradient-23"/>
    <linearGradient id="linear-gradient-113" x1="0.611" y1="0.137" x2="0.484" y2="0.552" xlink:href="#linear-gradient-23"/>
    <radialGradient id="radial-gradient-17" cx="0.595" cy="0.599" r="0.499" gradientTransform="translate(-0.003) scale(1.005 1)" xlink:href="#radial-gradient-2"/>
    <linearGradient id="linear-gradient-114" x1="0.278" y1="1.054" x2="0.977" y2="-0.117" xlink:href="#linear-gradient-23"/>
    <radialGradient id="radial-gradient-18" cx="0.954" cy="0.463" r="0.512" gradientTransform="translate(0.023) scale(0.954 1)" xlink:href="#radial-gradient-2"/>
    <linearGradient id="linear-gradient-118" x1="-0.859" y1="0.951" x2="1.918" y2="0.029" xlink:href="#linear-gradient-23"/>
    <linearGradient id="linear-gradient-119" x1="0.995" y1="-1.12" x2="0.43" y2="0.73" xlink:href="#linear-gradient-23"/>
    <radialGradient id="radial-gradient-19" cx="0.605" cy="0.829" r="1.203" gradientTransform="translate(0.224) scale(0.552 1)" xlink:href="#radial-gradient-2"/>
    <linearGradient id="linear-gradient-120" x1="0.168" y1="0.517" x2="2.408" y2="0.397" xlink:href="#linear-gradient-23"/>
    <linearGradient id="linear-gradient-121" x1="-0.807" y1="0.678" x2="1.872" y2="0.313" xlink:href="#linear-gradient-23"/>
    <linearGradient id="linear-gradient-122" x1="0.611" y1="0.137" x2="0.484" y2="0.552" xlink:href="#linear-gradient-23"/>
    <linearGradient id="linear-gradient-123" x1="0.278" y1="1.053" x2="0.977" y2="-0.117" xlink:href="#linear-gradient-23"/>
    <radialGradient id="radial-gradient-21" cx="0.955" cy="0.464" r="0.512" gradientTransform="translate(0.022) scale(0.956 1)" xlink:href="#radial-gradient-2"/>
    <linearGradient id="linear-gradient-128" x1="0.995" y1="-1.12" x2="0.43" y2="0.73" xlink:href="#linear-gradient-23"/>
    <radialGradient id="radial-gradient-22" cx="0.605" cy="0.828" r="1.203" gradientTransform="translate(0.224) scale(0.552 1)" xlink:href="#radial-gradient-2"/>
    <linearGradient id="linear-gradient-129" x1="0.166" y1="0.517" x2="2.426" y2="0.397" xlink:href="#linear-gradient-23"/>
    <linearGradient id="linear-gradient-130" x1="-0.808" y1="0.678" x2="1.874" y2="0.313" xlink:href="#linear-gradient-23"/>
    <linearGradient id="linear-gradient-131" x1="0.611" y1="0.137" x2="0.484" y2="0.551" xlink:href="#linear-gradient-23"/>
    <radialGradient id="radial-gradient-23" cx="0.595" cy="0.599" r="0.499" gradientTransform="translate(-0.002)" xlink:href="#radial-gradient-2"/>
    <linearGradient id="linear-gradient-132" x1="0" y1="0.5" x2="1" y2="0.5" xlink:href="#linear-gradient-33"/>
    <linearGradient id="linear-gradient-133" x1="0.524" y1="0.462" x2="3.645" y2="-3.675" xlink:href="#linear-gradient-23"/>
    <linearGradient id="linear-gradient-134" x1="-0.262" y1="1.502" x2="4.503" y2="-4.812" xlink:href="#linear-gradient-33"/>
    <linearGradient id="linear-gradient-135" x1="0.438" y1="0.535" x2="1.208" y2="-0.336" xlink:href="#linear-gradient-23"/>
    <linearGradient id="linear-gradient-136" x1="84.192" y1="-76.736" x2="85.183" y2="-76.736" xlink:href="#linear-gradient-22"/>
    <linearGradient id="linear-gradient-137" x1="0.278" y1="1.054" x2="0.978" y2="-0.119" xlink:href="#linear-gradient-23"/>
    <radialGradient id="radial-gradient-24" cx="0.954" cy="0.464" r="0.512" gradientTransform="translate(0.022) scale(0.956 1)" xlink:href="#radial-gradient-2"/>
    <radialGradient id="radial-gradient-25" cx="0.605" cy="0.828" r="1.203" gradientTransform="translate(0.224) scale(0.552 1)" xlink:href="#radial-gradient-2"/>
    <linearGradient id="linear-gradient-143" x1="-3.685" y1="0.5" x2="0.999" y2="0.5" xlink:href="#linear-gradient-33"/>
    <linearGradient id="linear-gradient-144" x1="84.068" y1="-76.536" x2="85.058" y2="-76.536" xlink:href="#linear-gradient-22"/>
    <linearGradient id="linear-gradient-145" x1="0.717" y1="0.521" x2="-1.034" y2="0.952" xlink:href="#linear-gradient-9"/>
    <linearGradient id="linear-gradient-146" x1="0" y1="0.501" x2="1.081" y2="0.501" xlink:href="#linear-gradient-23"/>
    <linearGradient id="linear-gradient-147" x1="-0.148" y1="0.751" x2="1.341" y2="0.152" xlink:href="#linear-gradient-9"/>
    <linearGradient id="linear-gradient-148" x1="0" y1="0.5" x2="1" y2="0.5" xlink:href="#linear-gradient-38"/>
    <linearGradient id="linear-gradient-149" x1="-155.814" y1="199.493" x2="-154.856" y2="199.493" xlink:href="#linear-gradient-33"/>
    <linearGradient id="linear-gradient-150" x1="-244.059" y1="164.291" x2="-242.746" y2="164.335" xlink:href="#linear-gradient-11"/>
    <linearGradient id="linear-gradient-151" x1="0.264" y1="1.299" x2="0.677" y2="-0.098" xlink:href="#linear-gradient-9"/>
    <linearGradient id="linear-gradient-152" x1="0.168" y1="0.517" x2="2.427" y2="0.397" xlink:href="#linear-gradient-23"/>
    <linearGradient id="linear-gradient-153" x1="-0.807" y1="0.678" x2="1.873" y2="0.313" xlink:href="#linear-gradient-23"/>
    <radialGradient id="radial-gradient-26" cx="0.595" cy="0.599" r="0.499" gradientTransform="translate(-0.003) scale(1.005 1)" xlink:href="#radial-gradient-2"/>
    <linearGradient id="linear-gradient-155" x1="0.869" y1="0.811" x2="0.252" y2="0.255" xlink:href="#linear-gradient-22"/>
    <linearGradient id="linear-gradient-156" x1="1.006" y1="0.707" x2="0.025" y2="0.225" xlink:href="#linear-gradient-22"/>
    <linearGradient id="linear-gradient-157" x1="0.47" y1="0.055" x2="0.531" y2="1.199" xlink:href="#linear-gradient-23"/>
    <linearGradient id="linear-gradient-158" x1="0" y1="30.196" x2="1" y2="30.196" xlink:href="#linear-gradient-33"/>
    <linearGradient id="linear-gradient-159" x1="0.96" y1="0.97" x2="-0.03" y2="-0.212" xlink:href="#linear-gradient-23"/>
    <linearGradient id="linear-gradient-160" x1="0.129" y1="1.001" x2="0.775" y2="0.066" xlink:href="#linear-gradient-11"/>
    <linearGradient id="linear-gradient-161" x1="0.5" y1="0.389" x2="0.5" y2="-0.003" gradientUnits="objectBoundingBox">
      <stop offset="0" stop-color="#fff"/>
      <stop offset="1" stop-color="#bcbec0"/>
    </linearGradient>
    <linearGradient id="linear-gradient-162" x1="0.953" y1="0.512" x2="-0.343" y2="0.478" xlink:href="#linear-gradient-22"/>
    <linearGradient id="linear-gradient-163" x1="-0.288" y1="0.5" x2="1.146" y2="0.5" xlink:href="#linear-gradient-23"/>
    <radialGradient id="radial-gradient-27" cx="0.208" cy="0.398" r="0.529" gradientTransform="translate(-0.114 11.385) scale(1.546 1.2)" xlink:href="#radial-gradient-11"/>
    <linearGradient id="linear-gradient-164" x1="0.978" y1="0.686" x2="0.003" y2="0.363" xlink:href="#linear-gradient-33"/>
    <linearGradient id="linear-gradient-165" x1="0.964" y1="1.42" x2="0.063" y2="-0.034" xlink:href="#linear-gradient-23"/>
  </defs>
  <g id="Mask_Group_18" data-name="Mask Group 18" class="cls-2" transform="translate(0 -2215)">
    <g id="Group_121" data-name="Group 121">
      <g id="hmm" class="cls-3" transform="translate(-34 2338.322)">
        <g id="Layer_2" data-name="Layer 2" transform="translate(0 0)">
          <g id="OBJECTS">
            <ellipse id="Ellipse_47" data-name="Ellipse 47" class="cls-4" cx="110.545" cy="107.127" rx="110.545" ry="107.127"/>
          </g>
        </g>
      </g>
      <path id="Polygon_19" data-name="Polygon 19" class="cls-5" d="M189.2,241.67c61.96-107.379,216.939-107.379,278.9,0L517.975,328.1c61.934,107.333-15.529,241.466-139.45,241.466H278.782c-123.92,0-201.384-134.133-139.45-241.466Z" transform="translate(394.53 2102.736) rotate(90)"/>
      <path id="Polygon_20" data-name="Polygon 20" class="cls-6" d="M199.368,160.227c39.343-70.167,140.338-70.167,179.682,0L492.418,362.415c38.5,68.659-11.126,153.375-89.841,153.375H175.84C97.125,515.789,47.5,431.073,86,362.415Z" transform="translate(384.692 2141.717) rotate(90)"/>
      <g id="Layer_2-2" data-name="Layer 2" transform="translate(-23.856 2303.38)">
        <g id="Layer_1" data-name="Layer 1">
          <path id="Path_1056" data-name="Path 1056" class="cls-7" d="M189.12,147.837l82.428,47.1,3.975-2.343L193.087,145.51Z" transform="translate(-41.429 -31.876)"/>
          <g id="Group_118" data-name="Group 118" transform="translate(153.431)">
            <path id="Path_1057" data-name="Path 1057" class="cls-8" d="M196.47,108.175l2.944,1.71V1.7L196.47,0Z" transform="translate(-196.47)"/>
            <path id="Path_1058" data-name="Path 1058" class="cls-9" d="M286.2,53.112v5.646L200.25,8.88V78.532l85.95,49.761v32.995l2.944,1.7V54.815Z" transform="translate(-197.298 -1.945)"/>
          </g>
          <path id="Path_1059" data-name="Path 1059" class="cls-10" d="M177.515,148.951v3.335l-2.905-1.671V147.28Z" transform="translate(-38.251 -32.264)"/>
          <path id="Path_1060" data-name="Path 1060" class="cls-11" d="M178.32,146.6v3.335l17.423-10.066V136.54Z" transform="translate(-39.064 -29.911)"/>
          <path id="Path_1061" data-name="Path 1061" class="cls-12" d="M194.93,136.069l-17.423,10.058-2.9-1.671,17.43-10.066Z" transform="translate(-38.251 -29.44)"/>
          <path id="Path_1062" data-name="Path 1062" class="cls-13" d="M186.66,5.732V113.916l2.975-1.71V4.03Z" transform="translate(-40.89 -0.883)"/>
          <path id="Path_1063" data-name="Path 1063" class="cls-14" d="M185.854,5.735V113.918l-2.944-1.71V4.04Z" transform="translate(-40.069 -0.885)"/>
          <path id="Path_1064" data-name="Path 1064" class="cls-15" d="M182.91,3.558l2.944,1.695,2.96-1.7-2.96-1.71Z" transform="translate(-40.069 -0.403)"/>
          <path id="Path_1065" data-name="Path 1065" class="cls-16" d="M297,76.422v69.535l3.225-1.765V74.54Z" transform="translate(-65.062 -16.329)"/>
          <path id="Path_1066" data-name="Path 1066" class="cls-17" d="M272.851,62.923v69.535L186.69,82.572V12.92Z" transform="translate(-40.897 -2.83)"/>
          <path id="Path_1067" data-name="Path 1067" class="cls-18" d="M188.62,82.433V16.28l83.138,48.254V130.57Z" transform="translate(-41.32 -3.566)"/>
          <path id="Path_1068" data-name="Path 1068" class="cls-19" d="M186.69,12.4l86.161,50,3.21-1.882L189.868,10.56Z" transform="translate(-40.897 -2.313)"/>
          <path id="Path_1069" data-name="Path 1069" class="cls-20" d="M291.355,214.471v3.335l-2.905-1.671V212.8Z" transform="translate(-63.189 -46.617)"/>
          <path id="Path_1070" data-name="Path 1070" class="cls-21" d="M292.16,212.118v3.335l17.423-10.066V202.06Z" transform="translate(-64.002 -44.264)"/>
          <path id="Path_1071" data-name="Path 1071" class="cls-22" d="M308.77,201.589l-17.423,10.058-2.9-1.671,17.43-10.066Z" transform="translate(-63.189 -43.793)"/>
          <path id="Path_1072" data-name="Path 1072" class="cls-23" d="M300.51,71.25V179.433l2.968-1.71V69.54Z" transform="translate(-65.831 -15.234)"/>
          <path id="Path_1073" data-name="Path 1073" class="cls-14" d="M299.694,71.255V179.438l-2.944-1.71V69.56Z" transform="translate(-65.007 -15.238)"/>
          <path id="Path_1074" data-name="Path 1074" class="cls-15" d="M296.75,69.078l2.944,1.695,2.96-1.71-2.96-1.7Z" transform="translate(-65.007 -14.756)"/>
          <path id="Path_1075" data-name="Path 1075" class="cls-24" d="M299.8,71.41V179.421l.562.422V71.793Z" transform="translate(-65.675 -15.643)"/>
          <path id="Path_1076" data-name="Path 1076" class="cls-25" d="M194.83,83.865V94.541l72.916,42.1V92.425l-17,5.2-13.752-7.278L226.06,92.214l-6.38-9.434-14.385,2.741Z" transform="translate(-42.68 -18.134)"/>
          <path id="Path_1077" data-name="Path 1077" class="cls-26" d="M258.647,64,229.26,47.02v2.4L258.647,66.4Z" transform="translate(-50.223 -10.3)"/>
          <path id="Path_1078" data-name="Path 1078" class="cls-26" d="M255.942,68.57,232.99,55.31v2.4l22.952,13.26Z" transform="translate(-51.04 -12.116)"/>
          <path id="Path_1079" data-name="Path 1079" class="cls-27" d="M147.735,190.9c.047.976-.633,4.139,1.8,3.6s3.9-1.991,5.537-2.093,2.874-1.015,2.772-1.945-1.359-.968-3.061-.781a5.615,5.615,0,0,1-3.3-.875Z" transform="translate(-32.352 -41.361)"/>
          <path id="Path_1080" data-name="Path 1080" class="cls-7" d="M115.01,207.885l17.212,10.043,20.148-11.7L135.15,196.21Z" transform="translate(-25.195 -42.983)"/>
          <path id="Path_1081" data-name="Path 1081" class="cls-28" d="M131.281,216.7a3.85,3.85,0,0,1-1.945-.523l-15.619-9.074a2.2,2.2,0,0,1,0-3.827l15.236-8.5v-8.458a.828.828,0,1,1,1.656,0v8.926a.843.843,0,0,1-.422.726l-15.619,8.754a.547.547,0,0,0,0,.945l15.619,9.082a2.226,2.226,0,0,0,2.226,0l13.534-7.911v-22.8a.836.836,0,0,1,1.663,0v23.233a.828.828,0,0,1-.414.718l-13.979,8.184A3.9,3.9,0,0,1,131.281,216.7Z" transform="translate(-24.668 -40.151)"/>
          <path id="Path_1082" data-name="Path 1082" class="cls-29" d="M131.258,216.105a3.358,3.358,0,0,1-1.663-.445l-15.619-9.074a1.656,1.656,0,0,1,0-2.874l15.509-8.676v-8.754a.281.281,0,1,1,.554,0v8.926a.273.273,0,0,1-.141.242L114.281,204.2a1.078,1.078,0,0,0-.562.953,1.062,1.062,0,0,0,.539.953l15.619,9.082a2.788,2.788,0,0,0,2.78,0l13.815-8.075V183.993a.273.273,0,1,1,.547,0v23.264a.281.281,0,0,1-.133.242l-13.948,8.153A3.319,3.319,0,0,1,131.258,216.105Z" transform="translate(-24.786 -40.246)"/>
          <path id="Path_1083" data-name="Path 1083" class="cls-30" d="M131.228,215.839a3.123,3.123,0,0,1-1.562-.414l-15.619-9.082a1.429,1.429,0,0,1,0-2.483l15.619-8.739v-8.895a.055.055,0,0,1,.109,0v8.926a.055.055,0,0,1,0,.047l-15.619,8.762a1.312,1.312,0,0,0,0,2.288l15.619,9.074a3,3,0,0,0,1.5.406,3.038,3.038,0,0,0,1.515-.406l13.862-8.145V183.985a.055.055,0,1,1,.109,0v23.264l-13.971,8.208A3.123,3.123,0,0,1,131.228,215.839Z" transform="translate(-24.826 -40.292)"/>
          <path id="Path_1084" data-name="Path 1084" class="cls-31" d="M131.531,166.208c2.28-.289,11.277-1.648,12.058.344s1.749,7.192,2.382,10.3a39.828,39.828,0,0,0,2.3,6.888l-4.639,2.7s-3.452-9.98-3.748-10.511-9.137-2.913-9.137-2.913Z" transform="translate(-28.643 -36.252)"/>
          <path id="Path_1085" data-name="Path 1085" class="cls-32" d="M135.15,192.755v1.695l18.8-10.878V181.83Z" transform="translate(-29.606 -39.832)"/>
          <path id="Path_1086" data-name="Path 1086" class="cls-33" d="M129.99,192.8V194.5l-18.43-10.707V182.05Z" transform="translate(-24.439 -39.881)"/>
          <path id="Path_1087" data-name="Path 1087" class="cls-34" d="M135.15,191.425v1.695l18.8-10.878V180.5Z" transform="translate(-29.606 -39.541)"/>
          <path id="Path_1088" data-name="Path 1088" class="cls-35" d="M129.99,191.474v1.695l-18.43-10.707V180.72Z" transform="translate(-24.439 -39.589)"/>
          <path id="Path_1089" data-name="Path 1089" class="cls-36" d="M111.56,177.66l18.43,10.753,18.8-10.925L130.342,166.75Z" transform="translate(-24.439 -36.529)"/>
          <path id="Path_1090" data-name="Path 1090" class="cls-37" d="M135,190.949l2.366-.539,16.556-9.91Z" transform="translate(-29.574 -39.541)"/>
          <path id="Path_1091" data-name="Path 1091" class="cls-38" d="M160.936,203.375s-1.609,1.945-1.507,3.3,2.085,1.312,3.4,1.171,4.28.289,5.467-.1,2.476-1.21,2.187-2.187-1.749-.437-3.124-.921a4.163,4.163,0,0,1-1.991-1.46Z" transform="translate(-34.924 -44.509)"/>
          <path id="Path_1092" data-name="Path 1092" class="cls-39" d="M131.681,171.719c-1.46.141-8.411-1.171-8.411-1.171s-.531,6.419,2.483,9.192a12.55,12.55,0,0,0,10.254,3.3c3.452-.484,18.368-.906,18.368-.906s-.656,5.67-.953,7.5c-.469,2.858-1.039,7.075-1.039,7.075a22.149,22.149,0,0,0,3.631.226c1.945-.047,1.781-.3,1.781-.3s2.554-8.083,3.124-9.777c1.078-3.241,2.85-6.88,2.273-8.731s-1.89-3.545-5.834-3.788c-3.436-.211-19.3-4.123-19.3-4.123Z" transform="translate(-26.996 -37.289)"/>
          <path id="Path_1093" data-name="Path 1093" class="cls-40" d="M115.478,136.709c-1.7.781-3.3,4.764-4.686,7.872s-4.756,7.1-2.28,8.95,14.19,2.624,14.19,2.624l-.242-3.014-8.309-3.124s4.225-4.326,4.568-4.818S117.032,136.03,115.478,136.709Z" transform="translate(-23.578 -29.94)"/>
          <path id="Path_1094" data-name="Path 1094" class="cls-41" d="M168.919,165.925a7.458,7.458,0,0,0,1.741-.351,7.669,7.669,0,0,1,2.858-.484,2.032,2.032,0,0,1,1.632,2.538c-.234,1.812-1.007,2.062-2.343,1.921s-4.178-.273-4.178-.273Z" transform="translate(-36.941 -36.165)"/>
          <path id="Path_1095" data-name="Path 1095" class="cls-42" d="M126.029,120.643c1.062-3.983,6.9-5.779,9.769-1.89s1.648,9.371.484,9.863-1.8-.484-2.187,1.023a5.966,5.966,0,0,0,.39,3.3l-8.458-2.093s1.359-1.749,1.21-2.96S125.178,123.938,126.029,120.643Z" transform="translate(-27.561 -25.541)"/>
          <path id="Path_1096" data-name="Path 1096" class="cls-43" d="M126.51,132.88a12.737,12.737,0,0,0,3.9,1.788,6.56,6.56,0,0,0,3.592,0l.492,2.038a11.784,11.784,0,0,1-5.2-.679c-2.772-1.023-3.358-1.945-3.358-1.945Z" transform="translate(-27.589 -29.109)"/>
          <path id="Path_1097" data-name="Path 1097" class="cls-44" d="M123.784,133.92a3.959,3.959,0,0,1-2.913,1.164c-1.749-.094-5.349.1-4.959,4.037s4.522,14.143,5.053,16.478a47.5,47.5,0,0,1,.39,7.872s5.537,2,10.691,1.125S137,161.721,137,161.721s-.086-17.181-.523-18.578-1.156-1.984-2.343-3.124c-.961-.945-2.054-4.225-2.054-4.225a8.9,8.9,0,0,1-4.178-.1A37.91,37.91,0,0,1,123.784,133.92Z" transform="translate(-25.386 -29.337)"/>
          <path id="Path_1098" data-name="Path 1098" class="cls-45" d="M168.059,165.649l1.374-.039-.117,4.03-1.617-.117Z" transform="translate(-36.737 -36.279)"/>
          <path id="Path_1099" data-name="Path 1099" class="cls-46" d="M134.5,124.91a.867.867,0,0,0-1.21.531,3.169,3.169,0,0,0,.094,2.624l.437.484a5.248,5.248,0,0,1-3.21.828,6.81,6.81,0,0,1-4.326-2.429c-.875-1.265-1.945-5.646.148-8.169a6.664,6.664,0,0,1,8.02-2.14c2.733,1.195,5.209,3.9,1.6,4.865C133.505,122.193,134.5,124.91,134.5,124.91Z" transform="translate(-27.431 -25.427)"/>
          <path id="Path_1100" data-name="Path 1100" class="cls-7" d="M140.88,164.075s-.086-17.181-.523-18.578-6.443-1.281-6.63,2.249c-.148,2.866,1.039,12.433,2.5,19.141C141.052,166.011,140.88,164.075,140.88,164.075Z" transform="translate(-29.292 -31.69)"/>
          <path id="Path_1101" data-name="Path 1101" class="cls-47" d="M136.36,143.373c-2.8,1.109-4.483,4.342.133,9.738s8.653,10.933,11.534,11.409,13.088.156,13.088.156l-.078-4.139s-9.262.2-11.285-1.952a76.345,76.345,0,0,1-6.333-8.676C141.936,147.637,140.413,141.772,136.36,143.373Z" transform="translate(-29.27 -31.348)"/>
          <path id="Path_1102" data-name="Path 1102" class="cls-48" d="M134.305,169.174l-1.843-7.474-1.382.781,1.843,7.435a46.074,46.074,0,0,1,1.343,11.035V187.3l1.382-.781V180.13a46.238,46.238,0,0,0-1.343-10.957Z" transform="translate(-28.715 -35.423)"/>
          <path id="Path_1103" data-name="Path 1103" class="cls-49" d="M125.914,159.7,107.46,148.89l1.851,7.5a46.223,46.223,0,0,1,1.335,11v6.365L129.1,184.516v-6.349a46.194,46.194,0,0,0-1.341-11.04Z" transform="translate(-23.541 -32.616)"/>
          <path id="Path_1104" data-name="Path 1104" class="cls-50" d="M107.46,148.669l18.454,10.808,1.374-.8L108.819,147.88Z" transform="translate(-23.541 -32.395)"/>
          <path id="Path_1105" data-name="Path 1105" class="cls-51" d="M107.46,148.89l18.852,10.488,2.069,10.535-2.733-10.2Z" transform="translate(-23.541 -32.616)"/>
          <path id="Path_1106" data-name="Path 1106" class="cls-7" d="M146.64,226.725l17.2,10.043,20.148-11.7-17.22-10.019Z" transform="translate(-32.124 -47.11)"/>
          <path id="Path_1107" data-name="Path 1107" class="cls-52" d="M162.9,235.524a3.9,3.9,0,0,1-1.937-.515l-15.619-9.082a2.194,2.194,0,0,1,0-3.827l15.228-8.52v-8.45a.828.828,0,1,1,1.656,0v8.926a.828.828,0,0,1-.43.726l-15.619,8.754a.547.547,0,0,0,0,.953l15.619,9.074a2.218,2.218,0,0,0,2.233,0l13.534-7.911v-22.8a.828.828,0,0,1,1.656,0V226.13a.836.836,0,0,1-.406.711l-13.948,8.153a3.811,3.811,0,0,1-1.968.531Z" transform="translate(-31.595 -44.257)"/>
          <path id="Path_1108" data-name="Path 1108" class="cls-29" d="M162.916,234.933a3.264,3.264,0,0,1-1.663-.453l-15.619-9.074a1.64,1.64,0,0,1,0-2.866l15.509-8.676v-8.739a.281.281,0,0,1,.554,0v8.926a.266.266,0,0,1-.148.242l-15.619,8.762a1.093,1.093,0,0,0,0,1.905l15.619,9.074a2.788,2.788,0,0,0,1.39.375,2.749,2.749,0,0,0,1.4-.383l13.807-8.075V202.844a.281.281,0,0,1,.554,0v23.272a.281.281,0,0,1-.133.234L164.618,234.5a3.327,3.327,0,0,1-1.7.43Z" transform="translate(-31.719 -44.385)"/>
          <path id="Path_1109" data-name="Path 1109" class="cls-53" d="M162.858,234.67a3.124,3.124,0,0,1-1.562-.414l-15.619-9.074a1.429,1.429,0,0,1,0-2.483l15.619-8.746v-8.895a.062.062,0,0,1,.055-.055.055.055,0,0,1,.055.055v8.934a.07.07,0,0,1,0,.047l-15.619,8.754a1.32,1.32,0,0,0,0,2.3l15.6,9.09a3.014,3.014,0,0,0,3.007,0l13.924-8.137V202.785a.055.055,0,1,1,.109,0v23.264l-13.971,8.2a3.069,3.069,0,0,1-1.6.422Z" transform="translate(-31.755 -44.411)"/>
          <path id="Path_1110" data-name="Path 1110" class="cls-54" d="M166.77,211.6v1.695l18.813-10.878V200.67Z" transform="translate(-36.533 -43.96)"/>
          <path id="Path_1111" data-name="Path 1111" class="cls-55" d="M161.61,211.643v1.695l-18.43-10.707V200.89Z" transform="translate(-31.366 -44.008)"/>
          <path id="Path_1112" data-name="Path 1112" class="cls-56" d="M166.77,210.273v1.687l18.813-10.878V199.34Z" transform="translate(-36.533 -43.668)"/>
          <path id="Path_1113" data-name="Path 1113" class="cls-57" d="M161.61,210.324v1.687l-18.43-10.7V199.57Z" transform="translate(-31.366 -43.719)"/>
          <path id="Path_1114" data-name="Path 1114" class="cls-58" d="M143.18,196.51l18.43,10.753,18.8-10.933L161.969,185.6Z" transform="translate(-31.366 -40.658)"/>
          <path id="Path_1115" data-name="Path 1115" class="cls-59" d="M166.62,209.789l2.366-.539,16.564-9.91Z" transform="translate(-36.5 -43.668)"/>
          <path id="Path_1116" data-name="Path 1116" class="cls-60" d="M165.927,188.016l-1.843-7.466-1.374.781,1.843,7.435a46.077,46.077,0,0,1,1.343,11.042v6.341l1.374-.781v-6.435a45.9,45.9,0,0,0-1.343-10.917Z" transform="translate(-35.644 -39.552)"/>
          <path id="Path_1117" data-name="Path 1117" class="cls-61" d="M157.544,178.538,139.09,167.73l1.843,7.5a45.81,45.81,0,0,1,1.335,11V192.6l18.461,10.761v-6.349a45.813,45.813,0,0,0-1.351-11.041Z" transform="translate(-30.47 -36.744)"/>
          <path id="Path_1118" data-name="Path 1118" class="cls-62" d="M139.09,167.511l18.454,10.808,1.367-.8L140.441,166.73Z" transform="translate(-30.47 -36.525)"/>
          <path id="Path_1119" data-name="Path 1119" class="cls-63" d="M139.09,167.73l18.844,10.488,2.077,10.543-2.741-10.207Z" transform="translate(-30.47 -36.744)"/>
          <path id="Path_1120" data-name="Path 1120" class="cls-64" d="M210.077,227.8c.055.968-.625,4.131,1.8,3.592s3.9-1.991,5.537-2.085,2.874-1.023,2.772-1.945-1.359-.976-3.061-.781a5.615,5.615,0,0,1-3.3-.875Z" transform="translate(-46.01 -49.445)"/>
          <path id="Path_1121" data-name="Path 1121" class="cls-7" d="M177.36,244.775l17.212,10.043,20.148-11.7L197.5,233.1Z" transform="translate(-38.853 -51.064)"/>
          <path id="Path_1122" data-name="Path 1122" class="cls-65" d="M193.631,253.618a3.905,3.905,0,0,1-1.945-.515l-15.619-9.082a2.2,2.2,0,0,1,0-3.827l15.228-8.52v-8.465a.828.828,0,0,1,1.656,0v8.926a.836.836,0,0,1-.422.726l-15.619,8.754a.554.554,0,0,0,0,.953l15.619,9.074a2.218,2.218,0,0,0,2.233,0l13.534-7.911v-22.8a.836.836,0,0,1,1.663,0V244.2a.82.82,0,0,1-.414.711l-13.94,8.153A3.858,3.858,0,0,1,193.631,253.618Z" transform="translate(-38.327 -48.232)"/>
          <path id="Path_1123" data-name="Path 1123" class="cls-29" d="M193.608,253.012a3.287,3.287,0,0,1-1.663-.453l-15.619-9.074a1.648,1.648,0,0,1,0-2.866l15.509-8.684v-8.762a.281.281,0,0,1,.554,0V232.1a.273.273,0,0,1-.141.242L176.631,241.1a1.092,1.092,0,0,0-.023,1.906l15.619,9.074a2.811,2.811,0,0,0,1.39.375,2.749,2.749,0,0,0,1.4-.383L208.829,244V220.923a.273.273,0,0,1,.547,0V244.2a.266.266,0,0,1-.133.234l-13.955,8.122A3.327,3.327,0,0,1,193.608,253.012Z" transform="translate(-38.444 -48.336)"/>
          <path id="Path_1124" data-name="Path 1124" class="cls-66" d="M193.581,252.72a3.124,3.124,0,0,1-1.562-.414L176.4,243.232a1.437,1.437,0,0,1-.711-1.25,1.414,1.414,0,0,1,.734-1.234L192.043,232v-8.895a.055.055,0,1,1,.109,0v8.926a.078.078,0,0,1,0,.055l-15.619,8.754a1.312,1.312,0,0,0-.679,1.14,1.3,1.3,0,0,0,.656,1.148l15.619,9.082a2.991,2.991,0,0,0,1.5.4,3.038,3.038,0,0,0,1.515-.406l13.916-8.137V220.835a.055.055,0,1,1,.109,0V244.1L195.2,252.3A3.069,3.069,0,0,1,193.581,252.72Z" transform="translate(-38.487 -48.365)"/>
          <path id="Path_1125" data-name="Path 1125" class="cls-67" d="M193.881,203.1c2.28-.289,11.277-1.648,12.05.344a93.354,93.354,0,0,1,2.382,10.308,40.606,40.606,0,0,0,2.3,6.88l-4.631,2.7s-3.452-9.973-3.748-10.511-9.137-2.929-9.137-2.929Z" transform="translate(-42.301 -44.333)"/>
          <path id="Path_1126" data-name="Path 1126" class="cls-32" d="M197.5,229.645v1.695l18.8-10.878V218.72Z" transform="translate(-43.265 -47.914)"/>
          <path id="Path_1127" data-name="Path 1127" class="cls-68" d="M192.338,229.694v1.695L173.9,220.682V218.94Z" transform="translate(-38.095 -47.962)"/>
          <path id="Path_1128" data-name="Path 1128" class="cls-69" d="M197.5,228.323v1.687l18.8-10.878V217.39Z" transform="translate(-43.265 -47.622)"/>
          <path id="Path_1129" data-name="Path 1129" class="cls-70" d="M192.338,228.373v1.687l-18.438-10.7V217.62Z" transform="translate(-38.095 -47.673)"/>
          <path id="Path_1130" data-name="Path 1130" class="cls-58" d="M173.9,214.56l18.438,10.753,18.8-10.933-18.446-10.73Z" transform="translate(-38.095 -44.612)"/>
          <path id="Path_1131" data-name="Path 1131" class="cls-71" d="M197.35,227.839l2.366-.539,16.556-9.91Z" transform="translate(-43.232 -47.622)"/>
          <path id="Path_1132" data-name="Path 1132" class="cls-72" d="M222.986,240.565s-1.609,1.945-1.507,3.311,2.085,1.312,3.4,1.164,4.225,0,5.467-.1c1.562-.156,2.882-1.031,2.187-2.187-.523-.867-1.749-.437-3.124-.921a4.162,4.162,0,0,1-1.991-1.46Z" transform="translate(-48.517 -52.656)"/>
          <path id="Path_1133" data-name="Path 1133" class="cls-73" d="M194.031,208.579c-1.46.148-8.411-1.164-8.411-1.164s-.531,6.411,2.483,9.184a12.5,12.5,0,0,0,10.254,3.3c3.452-.484,18.914-.906,18.914-.906s-1.2,5.67-1.5,7.5c-.469,2.858-1.039,7.075-1.039,7.075a21.624,21.624,0,0,0,3.631.234c1.945-.055,1.773-.312,1.773-.312s2.561-8.083,3.124-9.777c1.078-3.241,2.85-6.88,2.265-8.723s-1.882-3.553-5.826-3.8c-3.436-.211-19.3-4.123-19.3-4.123Z" transform="translate(-40.655 -45.364)"/>
          <path id="Path_1134" data-name="Path 1134" class="cls-7" d="M217.929,217.273s-17.626-.187-21.249-1.023c-2.062-.476-2.929-4.818-3.085-7.528-2.069-.062-7.966-1.171-7.966-1.171s-.531,6.411,2.483,9.184a12.5,12.5,0,0,0,10.254,3.3c3.452-.484,18.914-.906,18.914-.906Z" transform="translate(-40.657 -45.467)"/>
          <path id="Path_1135" data-name="Path 1135" class="cls-74" d="M177.8,173.609c-1.7.742-3.3,4.764-4.686,7.872s-4.764,7.1-2.28,8.942,14.19,2.624,14.19,2.624l-.242-3.014-8.309-3.124s4.225-4.326,4.568-4.811S179.359,172.922,177.8,173.609Z" transform="translate(-37.229 -38.023)"/>
          <path id="Path_1136" data-name="Path 1136" class="cls-75" d="M226.006,207.5a7.662,7.662,0,0,0,1.773,0,7.5,7.5,0,0,1,2.905.086,2.03,2.03,0,0,1,1.1,2.8c-.586,1.726-1.39,1.827-2.64,1.437s-4.045-1.085-4.045-1.085Z" transform="translate(-49.311 -45.434)"/>
          <path id="Path_1137" data-name="Path 1137" class="cls-76" d="M188.367,157.541c1.07-3.991,6.9-5.787,9.77-1.9s1.656,9.332.492,9.863-1.8-.484-2.187,1.023a5.989,5.989,0,0,0,.383,3.3l-8.458-2.085s1.367-1.749,1.218-2.968S187.492,160.8,188.367,157.541Z" transform="translate(-41.215 -33.622)"/>
          <path id="Path_1138" data-name="Path 1138" class="cls-77" d="M188.84,169.77a12.737,12.737,0,0,0,3.9,1.788,6.56,6.56,0,0,0,3.592,0l.484,2.038a11.792,11.792,0,0,1-5.2-.679c-2.765-1.023-3.35-1.945-3.35-1.945Z" transform="translate(-41.243 -37.19)"/>
          <path id="Path_1139" data-name="Path 1139" class="cls-78" d="M186.094,170.81a3.983,3.983,0,0,1-2.913,1.171c-1.757-.1-5.349.094-4.959,4.03s4.522,14.151,5.053,16.478a47.559,47.559,0,0,1,.39,7.88s5.537,1.991,10.691,1.117,4.959-2.866,4.959-2.866-.086-17.181-.523-18.578-1.156-1.991-2.343-3.124c-.961-.945-2.054-4.225-2.054-4.225a8.965,8.965,0,0,1-4.178-.094,37.209,37.209,0,0,1-4.123-1.788Z" transform="translate(-39.035 -37.418)"/>
          <path id="Path_1140" data-name="Path 1140" class="cls-79" d="M225.239,206.88l1.359.226-.906,3.928-1.562-.43Z" transform="translate(-49.099 -45.32)"/>
          <path id="Path_1141" data-name="Path 1141" class="cls-80" d="M196.846,161.782a.867.867,0,0,0-1.21.531,3.166,3.166,0,0,0,.094,2.624l.437.492a5.248,5.248,0,0,1-3.21.828,6.849,6.849,0,0,1-4.326-2.437c-.875-1.265-1.952-5.638.148-8.161,2.218-2.671,5.248-3.5,8.02-2.14s3.21.679,3.5,1.312-1.164,2.429-1.9,3.545a22.089,22.089,0,0,0-1.554,3.4Z" transform="translate(-41.088 -33.489)"/>
          <path id="Path_1142" data-name="Path 1142" class="cls-7" d="M202.994,200.937s-.086-17.181-.523-18.578S195.177,180.7,195,184.21c-.156,2.866,1.882,12.807,3.342,19.523C203.166,202.843,202.994,200.937,202.994,200.937Z" transform="translate(-42.715 -39.737)"/>
          <path id="Path_1143" data-name="Path 1143" class="cls-81" d="M198.462,178.981c-2.968.539-5.248,3.381-1.765,9.582s6.357,12.37,9.082,13.44,12.807,2.7,12.807,2.7l.734-4.069s-9.121-1.609-10.691-4.116a75.912,75.912,0,0,1-4.514-9.73C203.093,184.26,202.749,178.2,198.462,178.981Z" transform="translate(-42.704 -39.193)"/>
          <path id="Path_1144" data-name="Path 1144" class="cls-82" d="M196.647,206.066l-1.835-7.466-1.382.781,1.843,7.435a46.074,46.074,0,0,1,1.343,11.042V224.2l1.382-.781V217.03a45.909,45.909,0,0,0-1.351-10.964Z" transform="translate(-42.374 -43.506)"/>
          <path id="Path_1145" data-name="Path 1145" class="cls-83" d="M188.264,196.588,169.81,185.78l1.851,7.5a46.206,46.206,0,0,1,1.335,11v6.365l18.454,10.761v-6.349a46.071,46.071,0,0,0-1.343-11.041Z" transform="translate(-37.199 -40.698)"/>
          <path id="Path_1146" data-name="Path 1146" class="cls-84" d="M169.81,185.561l18.454,10.808,1.374-.8L171.161,184.78Z" transform="translate(-37.199 -40.479)"/>
          <path id="Path_1147" data-name="Path 1147" class="cls-85" d="M169.81,185.78l18.852,10.5,2.069,10.535L188,196.6Z" transform="translate(-37.199 -40.698)"/>
          <path id="Path_1148" data-name="Path 1148" class="cls-7" d="M60.48,239.605l17.212,10.043,20.148-11.7L80.62,227.93Z" transform="translate(-13.249 -49.931)"/>
          <path id="Path_1149" data-name="Path 1149" class="cls-86" d="M76.761,248.386a3.905,3.905,0,0,1-1.945-.515L59.2,238.788a2.2,2.2,0,0,1,0-3.827l15.22-8.52V218a.828.828,0,0,1,1.656,0v8.926a.836.836,0,0,1-.422.726l-15.619,8.762a.523.523,0,0,0-.281.469.547.547,0,0,0,.266.476l15.619,9.074a2.218,2.218,0,0,0,2.233,0L91.4,238.523v-22.78a.836.836,0,1,1,1.663,0v23.264a.82.82,0,0,1-.414.711l-13.94,8.137a3.858,3.858,0,0,1-1.952.531Z" transform="translate(-12.725 -47.061)"/>
          <path id="Path_1150" data-name="Path 1150" class="cls-29" d="M76.728,247.833a3.288,3.288,0,0,1-1.663-.453l-15.619-9.074a1.648,1.648,0,0,1,0-2.866l15.509-8.676v-8.77a.281.281,0,0,1,.554,0v8.926a.273.273,0,0,1-.141.242L59.7,235.924a1.092,1.092,0,0,0-.023,1.905L75.291,246.9a2.811,2.811,0,0,0,1.39.375,2.749,2.749,0,0,0,1.4-.383l13.815-8.075V215.713a.273.273,0,1,1,.547,0v23.272a.266.266,0,0,1-.133.234l-13.869,8.153A3.249,3.249,0,0,1,76.728,247.833Z" transform="translate(-12.84 -47.195)"/>
          <path id="Path_1151" data-name="Path 1151" class="cls-87" d="M76.7,247.558a3.124,3.124,0,0,1-1.562-.422l-15.619-9.074a1.429,1.429,0,0,1,0-2.483l15.619-8.746v-8.895a.055.055,0,0,1,.109,0v8.957l-15.619,8.754a1.32,1.32,0,0,0,0,2.3l15.619,9.075a2.991,2.991,0,0,0,1.5.4,3.038,3.038,0,0,0,1.515-.406l13.916-8.137V215.665a.055.055,0,0,1,.109,0v23.264l-14.018,8.223a3.077,3.077,0,0,1-1.57.406Z" transform="translate(-12.88 -47.232)"/>
          <path id="Path_1152" data-name="Path 1152" class="cls-88" d="M93.2,222.633c.055.968-.625,4.131,1.8,3.6s3.9-2,5.537-2.093,2.874-1.023,2.772-1.945-1.359-.976-3.061-.781a5.615,5.615,0,0,1-3.311-.875Z" transform="translate(-20.406 -48.312)"/>
          <path id="Path_1153" data-name="Path 1153" class="cls-89" d="M77,197.936c2.28-.3,11.277-1.656,12.05.336a85.828,85.828,0,0,1,2.343,10.308,40.607,40.607,0,0,0,2.343,6.88l-4.631,2.71s-3.452-9.98-3.749-10.519-9.137-2.913-9.137-2.913Z" transform="translate(-16.697 -43.201)"/>
          <path id="Path_1154" data-name="Path 1154" class="cls-69" d="M80.62,224.475v1.695l18.8-10.878V213.55Z" transform="translate(-17.661 -46.781)"/>
          <path id="Path_1155" data-name="Path 1155" class="cls-68" d="M75.458,224.523v1.695L57.02,215.512V213.77Z" transform="translate(-12.491 -46.829)"/>
          <path id="Path_1156" data-name="Path 1156" class="cls-90" d="M80.62,223.153v1.687l18.8-10.878V212.22Z" transform="translate(-17.661 -46.49)"/>
          <path id="Path_1157" data-name="Path 1157" class="cls-70" d="M75.458,223.2v1.687l-18.438-10.7V212.45Z" transform="translate(-12.491 -46.54)"/>
          <path id="Path_1158" data-name="Path 1158" class="cls-58" d="M57.02,209.39l18.438,10.754,18.8-10.933L75.809,198.48Z" transform="translate(-12.491 -43.48)"/>
          <path id="Path_1159" data-name="Path 1159" class="cls-91" d="M80.47,222.669l2.366-.539,16.556-9.91Z" transform="translate(-17.628 -46.49)"/>
          <path id="Path_1160" data-name="Path 1160" class="cls-92" d="M106.406,235.1s-1.609,1.945-1.507,3.311,2.085,1.312,3.4,1.164,4.28.289,5.467-.094,2.476-1.218,2.187-2.187-1.749-.437-3.124-.929a4.178,4.178,0,0,1-1.991-1.453Z" transform="translate(-22.979 -51.46)"/>
          <path id="Path_1161" data-name="Path 1161" class="cls-93" d="M77.151,203.439c-1.46.148-8.411-1.164-8.411-1.164s-.531,6.411,2.483,9.184a12.5,12.5,0,0,0,10.254,3.3c3.452-.484,18.368-.9,18.368-.9s-.656,5.662-.953,7.5c-.469,2.858-1.039,7.075-1.039,7.075a21.621,21.621,0,0,0,3.631.234c1.945-.055,1.773-.312,1.773-.312s2.561-8.083,3.124-9.777c1.078-3.241,2.85-6.88,2.265-8.723s-1.882-3.553-5.826-3.8c-3.436-.2-19.3-4.123-19.3-4.123Z" transform="translate(-15.051 -44.238)"/>
          <path id="Path_1162" data-name="Path 1162" class="cls-94" d="M109.126,202.331a7.664,7.664,0,0,0,1.773,0,7.5,7.5,0,0,1,2.905.086,2.03,2.03,0,0,1,1.1,2.8c-.586,1.726-1.39,1.827-2.64,1.437s-4.045-1.086-4.045-1.086Z" transform="translate(-23.707 -44.301)"/>
          <path id="Path_1163" data-name="Path 1163" class="cls-95" d="M71.487,152.371c1.07-3.991,6.9-5.787,9.777-1.9s1.648,9.332.484,9.871-1.8-.492-2.187,1.015a6.029,6.029,0,0,0,.383,3.311l-8.458-2.093s1.367-1.749,1.218-2.968S70.612,155.627,71.487,152.371Z" transform="translate(-15.611 -32.489)"/>
          <path id="Path_1164" data-name="Path 1164" class="cls-96" d="M71.98,164.6a12.5,12.5,0,0,0,3.9,1.788,6.474,6.474,0,0,0,3.592,0l.484,2.038a11.792,11.792,0,0,1-5.2-.679C72,166.732,71.41,165.8,71.41,165.8Z" transform="translate(-15.643 -36.058)"/>
          <path id="Path_1165" data-name="Path 1165" class="cls-97" d="M69.2,165.65a9.816,9.816,0,0,1-2.913,1.164c-1.991.437-5.4,1.468-5.006,5.4s3.124,12.378,3.663,14.713a72.579,72.579,0,0,1,.89,7.887s6.474,2.343,11.62,1.5,4.959-2.866,4.959-2.866-.086-17.181-.523-18.578-1.156-1.991-2.343-3.124c-.961-.945-2.054-4.225-2.054-4.225a8.848,8.848,0,0,1-4.178-.094A37.907,37.907,0,0,1,69.2,165.65Z" transform="translate(-13.418 -36.288)"/>
          <path id="Path_1166" data-name="Path 1166" class="cls-98" d="M108.359,201.71l1.359.226-.906,3.928-1.562-.43Z" transform="translate(-23.495 -44.187)"/>
          <path id="Path_1167" data-name="Path 1167" class="cls-99" d="M79.974,156.612a.89.89,0,0,0-1.21.531c-1.921,4.834-5.779,3.9-7.028,1.507-.711-1.359-1.952-5.638.148-8.161,2.218-2.671,5.248-3.5,8.02-2.14s2.343,3.741,1.562,4.857a22.093,22.093,0,0,0-1.492,3.4Z" transform="translate(-15.492 -32.357)"/>
          <path id="Path_1168" data-name="Path 1168" class="cls-7" d="M82.118,198.607c4.2-.945,4.03-2.686,4.03-2.686s-.086-17.181-.523-18.578c-.047-.148-.1-.289-.156-.422l-7.208,2.343Z" transform="translate(-17.144 -38.757)"/>
          <path id="Path_1169" data-name="Path 1169" class="cls-100" d="M81.582,173.851c-2.968.539-5.248,3.381-1.765,9.582s6.357,12.386,9.082,13.44,12.807,2.7,12.807,2.7l.734-4.069S93.319,193.9,91.75,191.39a74.49,74.49,0,0,1-4.514-9.746C86.228,179.122,85.869,173.07,81.582,173.851Z" transform="translate(-17.1 -38.069)"/>
          <path id="Path_1170" data-name="Path 1170" class="cls-101" d="M79.767,200.906l-1.835-7.466-1.382.781,1.843,7.466a46.154,46.154,0,0,1,1.343,11.042v6.341l1.382-.781v-6.451A45.958,45.958,0,0,0,79.767,200.906Z" transform="translate(-16.769 -42.376)"/>
          <path id="Path_1171" data-name="Path 1171" class="cls-102" d="M71.384,191.426,52.93,180.61l1.851,7.5a46.224,46.224,0,0,1,1.328,11v6.357l18.454,10.761v-6.349a46.2,46.2,0,0,0-1.335-11.011Z" transform="translate(-11.595 -39.565)"/>
          <path id="Path_1172" data-name="Path 1172" class="cls-103" d="M52.93,180.391l18.454,10.816,1.374-.8L54.281,179.61Z" transform="translate(-11.595 -39.346)"/>
          <path id="Path_1173" data-name="Path 1173" class="cls-104" d="M52.93,180.61l18.852,10.5,2.069,10.535-2.733-10.207Z" transform="translate(-11.595 -39.565)"/>
          <path id="Path_1174" data-name="Path 1174" class="cls-105" d="M115.731,216.779s5.068-.781,5.88.617,6.247,18.633,6.747,19.883a4.99,4.99,0,0,0,2.1,2.405s-.609,3.014-4.194,2.194a2.171,2.171,0,0,1-1.179-.508,22.85,22.85,0,0,0-2.194-5.935c-1.328-2.03-4.451-10.683-4.451-10.683l-12.011-1.07Z" transform="translate(-23.315 -47.441)"/>
          <path id="Path_1175" data-name="Path 1175" class="cls-106" d="M129.911,246.917a3.95,3.95,0,0,0-.047,2.936,34.1,34.1,0,0,1,1.687,3.506l.976-.312L132,250.595a6.481,6.481,0,0,1,2.577-.445c1.273.094,3.038,1.023,4.514.344s2.093-1.7,1.562-2.585-1.609-.656-2.764-.929a14.612,14.612,0,0,1-2.811-1.179,1.609,1.609,0,0,1-1.367,1.913C131.988,248.19,129.911,246.917,129.911,246.917Z" transform="translate(-28.389 -53.846)"/>
          <path id="Path_1176" data-name="Path 1176" class="cls-107" d="M146.279,189.946a4.529,4.529,0,0,1,1.351-.781c1.382-.445,4.116-1.835,4.116-2.624a10.043,10.043,0,0,0-.992-2.733s2.679-2.483,2.78-2.733-.351-.594-1.093-.047a26.673,26.673,0,0,1-3.475,2.187l-.992.148a10.149,10.149,0,0,0,.992-1.343c.148-.344.047-.945-.344-.89s-1.64,1.937-2.14,2.28a8.028,8.028,0,0,0-1.437,2.483,11.533,11.533,0,0,1-.7,1.39S145.3,190.743,146.279,189.946Z" transform="translate(-31.622 -39.593)"/>
          <path id="Path_1177" data-name="Path 1177" class="cls-108" d="M143.88,188.935l.609-.7,2.585,2.843-.765.508Z" transform="translate(-31.519 -41.237)"/>
          <path id="Path_1178" data-name="Path 1178" class="cls-7" d="M92.25,258.3l17.2,10.043,20.156-11.7L112.383,246.62Z" transform="translate(-20.209 -54.026)"/>
          <path id="Path_1179" data-name="Path 1179" class="cls-52" d="M108.519,267.094a3.9,3.9,0,0,1-1.945-.515L90.956,257.5a2.194,2.194,0,0,1,0-3.827l15.228-8.52v-8.442a.828.828,0,0,1,1.656,0v8.918a.836.836,0,0,1-.422.726L91.8,255.115a.515.515,0,0,0-.273.469.531.531,0,0,0,.266.476l15.619,9.074a2.218,2.218,0,0,0,2.233,0l13.534-7.911v-22.8a.828.828,0,1,1,1.656,0V257.7a.836.836,0,0,1-.406.711l-13.948,8.153a3.8,3.8,0,0,1-1.96.531Z" transform="translate(-19.68 -51.173)"/>
          <path id="Path_1180" data-name="Path 1180" class="cls-29" d="M108.5,266.534a3.265,3.265,0,0,1-1.663-.453l-15.619-9.074a1.648,1.648,0,0,1,0-2.866l15.509-8.676v-8.77a.281.281,0,0,1,.554,0v8.926a.273.273,0,0,1-.141.242l-15.619,8.762a1.093,1.093,0,0,0,0,1.906l15.619,9.074a2.788,2.788,0,0,0,1.39.375,2.749,2.749,0,0,0,1.4-.383l13.807-8.075V234.414a.281.281,0,0,1,.554,0v23.272a.281.281,0,0,1-.133.234l-13.979,8.137A3.327,3.327,0,0,1,108.5,266.534Z" transform="translate(-19.799 -51.3)"/>
          <path id="Path_1181" data-name="Path 1181" class="cls-109" d="M108.471,266.248a3.123,3.123,0,0,1-1.562-.422l-15.619-9.074a1.4,1.4,0,0,1-.711-1.25,1.414,1.414,0,0,1,.734-1.234l15.619-8.746v-8.895a.055.055,0,0,1,.109,0v8.981L91.353,254.37a1.32,1.32,0,0,0,0,2.3l15.619,9.074a2.975,2.975,0,0,0,1.5.4,3.038,3.038,0,0,0,1.515-.406L123.9,257.6V234.355a.055.055,0,1,1,.109,0v23.264l-13.971,8.2a3.077,3.077,0,0,1-1.57.43Z" transform="translate(-19.843 -51.327)"/>
          <path id="Path_1182" data-name="Path 1182" class="cls-69" d="M112.39,243.173v1.687l18.8-10.878V232.24Z" transform="translate(-24.621 -50.875)"/>
          <path id="Path_1183" data-name="Path 1183" class="cls-110" d="M107.22,243.221v1.687L88.79,234.2V232.46Z" transform="translate(-19.451 -50.924)"/>
          <path id="Path_1184" data-name="Path 1184" class="cls-90" d="M112.39,241.843v1.687l18.8-10.878V230.91Z" transform="translate(-24.621 -50.584)"/>
          <path id="Path_1185" data-name="Path 1185" class="cls-111" d="M107.22,241.893v1.687l-18.43-10.7V231.14Z" transform="translate(-19.451 -50.634)"/>
          <path id="Path_1186" data-name="Path 1186" class="cls-58" d="M88.79,228.08l18.43,10.753,18.8-10.933-18.446-10.73Z" transform="translate(-19.451 -47.574)"/>
          <path id="Path_1187" data-name="Path 1187" class="cls-112" d="M112.23,241.359l2.366-.539,16.564-9.91Z" transform="translate(-24.586 -50.584)"/>
          <path id="Path_1188" data-name="Path 1188" class="cls-113" d="M113,232.221c2.452.562,9.285-1.078,12.409-1.335,3.288-.258,7.864-.781,7.864-.781s.781,11.472.89,13.276a50.213,50.213,0,0,1-.039,5.607c-.055.633.406,2.554,2.3,1.781a57.719,57.719,0,0,1,6.638-1.929c.781-.172-4.006-1.687-4.553-3.592-.172-.57-1.179-1.562-.055-6.333a70.441,70.441,0,0,0,1.515-11.9c0-1.125,0-3.124-2.3-3.53s-23.951-2.452-23.951-2.452Z" transform="translate(-24.754 -48.42)"/>
          <path id="Path_1189" data-name="Path 1189" class="cls-114" d="M99.289,211.47a25.921,25.921,0,0,0,6.341,2.148c2.437.258,7.349.484,7.349.484s4.092.258,4.756.781,6.247,3.9,6.833,4.428.867,3.9.781,6.185.211,2.811-1.937,3.577-10.5,3.577-18.329.406c-8.317-3.374-8.793-7.263-8.793-9.2C96.321,216.476,99.289,211.47,99.289,211.47Z" transform="translate(-21.094 -46.325)"/>
          <path id="Path_1190" data-name="Path 1190" class="cls-115" d="M139.968,254.689a3.927,3.927,0,0,0-.055,2.944,34.093,34.093,0,0,1,1.687,3.506l.984-.312-.523-2.452a6.466,6.466,0,0,1,2.569-.445c1.273.094,3.038,1.023,4.514.344s2.093-1.7,1.562-2.585-1.562-.656-2.757-.929a14.53,14.53,0,0,1-2.819-1.179,1.609,1.609,0,0,1-1.3,1.89A5.959,5.959,0,0,1,139.968,254.689Z" transform="translate(-30.591 -55.55)"/>
          <path id="Path_1191" data-name="Path 1191" class="cls-116" d="M96.426,182.86c-1.484,1.562-3.428,9.2-4.194,10.636s-3.272,5.31-.508,7.028,8.528,2.171,8.528,2.171-1.843-4.3-1.991-4.3-2.561-1.171-2.561-1.171l2.921-6.958Z" transform="translate(-19.816 -40.058)"/>
          <path id="Path_1192" data-name="Path 1192" class="cls-117" d="M113.491,162.871c1.562,1.21,2.554,5.576,1.562,8.536s-2.249,3.225-2.765,3.483-2.093,2.858-1.484,4.037-4.139.508-5.31-.461-1.226-1.382-1.226-1.382,1.226-1.89.664-3.272-2.968-6.443,0-9.918A6.247,6.247,0,0,1,113.491,162.871Z" transform="translate(-22.669 -35.406)"/>
          <path id="Path_1193" data-name="Path 1193" class="cls-118" d="M103.2,180.964s-2.968-1.273-4.912.461-1.562,3.53-1.273,6.9c.383,5.115,2.554,10.379,2.757,12.675s-1.734,5.162-1.734,5.162.922,1.437,6.083,1.945a24.818,24.818,0,0,0,9.145-.781s-.5-5.779-.445-7.31,1.562-3.834,1.726-6.49.2-6.646-1.788-7.926a31.1,31.1,0,0,1-3.428-2.554,9.051,9.051,0,0,1-3.725-.156,3.061,3.061,0,0,1-2.405-1.929Z" transform="translate(-21.2 -39.544)"/>
          <path id="Path_1194" data-name="Path 1194" class="cls-7" d="M116.017,201.611c.047-1.562,1.562-3.834,1.726-6.49.141-2.343.187-5.795-1.21-7.411-2.085.133-4.92.7-5.115,2.468a103.372,103.372,0,0,0,.219,15.416c.2,1.632.414,3.014.6,4.1a22.115,22.115,0,0,0,4.225-.781S115.962,203.141,116.017,201.611Z" transform="translate(-24.366 -41.12)"/>
          <path id="Path_1195" data-name="Path 1195" class="cls-119" d="M115.984,186.948a3.124,3.124,0,0,0-4.451,1.843c-.609,2.194.414,4.686,3.225,5.927s9.371,5.982,10.379,6.591,2.554,1.742,4.545,0,9.973-10.152,9.973-10.152l-2.71-2.913s-5.623,5.873-6.9,6.693-2.507,1.562-2.507,1.562S117.827,187.869,115.984,186.948Z" transform="translate(-24.396 -40.874)"/>
          <path id="Path_1196" data-name="Path 1196" class="cls-120" d="M114.446,166.542a11.894,11.894,0,0,1-2.4,1.687c-.976.414-.718,1.179-.617,1.788,0,0-1.179.312-1.429.718s-.781,1.179-.2,1.89,2.093,2.382,1.429,4.4c-.937,2.827,3.046,4.889,3.046,4.889s-6.849,3.038-11.48.89c-4.194-1.945-5.318-5.576-4.147-6.247s3.272-1.078,2.819-7.622a7.137,7.137,0,0,1,7.919-7.567C115.508,161.74,114.446,166.542,114.446,166.542Z" transform="translate(-21.515 -35.345)"/>
          <path id="Path_1197" data-name="Path 1197" class="cls-121" d="M111.537,219.586l-1.843-7.466-1.374.781,1.843,7.427a46.155,46.155,0,0,1,1.343,11.042v6.341l1.374-.781V230.5A45.552,45.552,0,0,0,111.537,219.586Z" transform="translate(-23.729 -46.468)"/>
          <path id="Path_1198" data-name="Path 1198" class="cls-122" d="M103.154,210.116,84.7,199.3l1.851,7.5a46.208,46.208,0,0,1,1.335,11v6.365l18.454,10.761v-6.349a45.814,45.814,0,0,0-1.351-11.041Z" transform="translate(-18.555 -43.659)"/>
          <path id="Path_1199" data-name="Path 1199" class="cls-123" d="M84.7,199.081,103.154,209.9l1.367-.8L86.051,198.3Z" transform="translate(-18.555 -43.44)"/>
          <path id="Path_1200" data-name="Path 1200" class="cls-124" d="M84.7,199.3l18.844,10.5,2.077,10.535-2.741-10.207Z" transform="translate(-18.555 -43.659)"/>
          <path id="Path_1201" data-name="Path 1201" class="cls-7" d="M122.82,276.345l17.212,10.043,20.148-11.7L142.96,264.67Z" transform="translate(-26.905 -57.98)"/>
          <path id="Path_1202" data-name="Path 1202" class="cls-125" d="M139.091,285.144a3.9,3.9,0,0,1-1.945-.515l-15.619-9.082a2.2,2.2,0,0,1,0-3.827l15.22-8.52v-8.442a.828.828,0,0,1,1.656,0v8.926a.836.836,0,0,1-.422.726l-15.619,8.754a.547.547,0,0,0,0,.953l15.619,9.075a2.2,2.2,0,0,0,2.226,0l13.541-7.919v-22.8a.828.828,0,0,1,1.656,0V275.75a.82.82,0,0,1-.414.711l-13.94,8.153a3.834,3.834,0,0,1-1.96.531Z" transform="translate(-26.379 -55.127)"/>
          <path id="Path_1203" data-name="Path 1203" class="cls-29" d="M139.068,284.573a3.311,3.311,0,0,1-1.663-.453l-15.619-9.074a1.648,1.648,0,0,1,0-2.866L137.3,263.5v-8.77a.281.281,0,0,1,.554,0v8.926a.273.273,0,0,1-.141.242l-15.619,8.762a1.093,1.093,0,0,0,0,1.905l15.619,9.074a2.741,2.741,0,0,0,2.78,0l13.815-8.075V252.453a.273.273,0,0,1,.547,0v23.272a.266.266,0,0,1-.133.234l-13.971,8.153A3.327,3.327,0,0,1,139.068,284.573Z" transform="translate(-26.496 -55.244)"/>
          <path id="Path_1204" data-name="Path 1204" class="cls-126" d="M139.028,284.3a3.124,3.124,0,0,1-1.562-.422L121.8,274.8a1.437,1.437,0,0,1-.711-1.25,1.413,1.413,0,0,1,.734-1.234l15.619-8.746v-8.895a.055.055,0,0,1,.109,0v8.934a.055.055,0,0,1,0,.047l-15.619,8.754a1.328,1.328,0,0,0,0,2.3l15.619,9.074a2.944,2.944,0,0,0,1.492.4,3.038,3.038,0,0,0,1.515-.406l13.916-8.137V252.4a.055.055,0,0,1,.109,0v23.264l-13.971,8.2A3.061,3.061,0,0,1,139.028,284.3Z" transform="translate(-26.526 -55.281)"/>
          <path id="Path_1205" data-name="Path 1205" class="cls-32" d="M142.96,261.223v1.687l18.8-10.878V250.29Z" transform="translate(-31.317 -54.83)"/>
          <path id="Path_1206" data-name="Path 1206" class="cls-35" d="M137.8,261.271v1.687l-18.43-10.707V250.51Z" transform="translate(-26.15 -54.878)"/>
          <path id="Path_1207" data-name="Path 1207" class="cls-90" d="M142.96,259.893v1.687l18.8-10.878V248.96Z" transform="translate(-31.317 -54.538)"/>
          <path id="Path_1208" data-name="Path 1208" class="cls-127" d="M137.8,259.943v1.687l-18.43-10.7V249.19Z" transform="translate(-26.15 -54.589)"/>
          <path id="Path_1209" data-name="Path 1209" class="cls-128" d="M119.37,246.13l18.43,10.753,18.8-10.933-18.438-10.73Z" transform="translate(-26.15 -51.528)"/>
          <path id="Path_1210" data-name="Path 1210" class="cls-129" d="M142.81,259.409l2.366-.539,16.556-9.91Z" transform="translate(-31.285 -54.538)"/>
          <path id="Path_1211" data-name="Path 1211" class="cls-130" d="M142.1,237.636l-1.843-7.466-1.382.781,1.843,7.435a45.764,45.764,0,0,1,1.382,11.058v6.365l1.382-.781v-6.435a46.3,46.3,0,0,0-1.382-10.957Z" transform="translate(-30.421 -50.422)"/>
          <path id="Path_1212" data-name="Path 1212" class="cls-131" d="M133.724,228.158,115.27,217.35l1.851,7.5a45.809,45.809,0,0,1,1.335,10.964v6.365L136.925,253v-6.349a46.2,46.2,0,0,0-1.343-11.042Z" transform="translate(-25.252 -47.614)"/>
          <path id="Path_1213" data-name="Path 1213" class="cls-132" d="M115.27,217.131l18.454,10.808,1.374-.8L116.629,216.35Z" transform="translate(-25.252 -47.394)"/>
          <path id="Path_1214" data-name="Path 1214" class="cls-104" d="M115.27,217.35l18.852,10.488,2.069,10.543-2.733-10.207Z" transform="translate(-25.252 -47.614)"/>
          <path id="Path_1215" data-name="Path 1215" class="cls-7" d="M7.55,270.465l17.212,10.043,20.148-11.7L27.69,258.79Z" transform="translate(-1.654 -56.692)"/>
          <path id="Path_1216" data-name="Path 1216" class="cls-133" d="M23.821,279.264a3.85,3.85,0,0,1-1.945-.523L6.258,269.667a2.2,2.2,0,0,1,0-3.827l15.22-8.52v-8.442a.828.828,0,0,1,1.656,0V257.8a.82.82,0,0,1-.422.726L7.094,267.285a.547.547,0,0,0,0,.953l15.619,9.074a2.2,2.2,0,0,0,2.226,0l13.541-7.934V246.6a.828.828,0,0,1,1.656,0v23.264a.828.828,0,0,1-.414.718l-13.94,8.169A3.9,3.9,0,0,1,23.821,279.264Z" transform="translate(-1.127 -53.839)"/>
          <path id="Path_1217" data-name="Path 1217" class="cls-29" d="M23.813,278.685a3.3,3.3,0,0,1-1.663-.445L6.531,269.166a1.671,1.671,0,0,1,.062-2.866L22.1,257.616v-8.762a.281.281,0,0,1,.554,0v8.926a.273.273,0,0,1-.141.242L6.9,266.776a1.1,1.1,0,0,0,0,1.913l15.619,9.074a2.741,2.741,0,0,0,2.78,0l13.815-8.075V246.573a.273.273,0,1,1,.547,0v23.264a.266.266,0,0,1-.133.242l-14.057,8.153a3.319,3.319,0,0,1-1.656.453Z" transform="translate(-1.259 -53.955)"/>
          <path id="Path_1218" data-name="Path 1218" class="cls-134" d="M23.771,278.408a3.124,3.124,0,0,1-1.562-.414L6.591,268.92a1.445,1.445,0,0,1-.711-1.25,1.414,1.414,0,0,1,.718-1.265l15.619-8.746v-8.864a.055.055,0,0,1,.109,0v8.926a.039.039,0,0,1,0,.047L6.708,266.53a1.289,1.289,0,0,0-.734,1.14,1.273,1.273,0,0,0,.656,1.148L22.248,277.9a3.014,3.014,0,0,0,3.007,0l13.916-8.137V246.515a.055.055,0,1,1,.109,0v23.272l-13.94,8.2A3.123,3.123,0,0,1,23.771,278.408Z" transform="translate(-1.288 -53.99)"/>
          <path id="Path_1219" data-name="Path 1219" class="cls-32" d="M27.69,255.335v1.695l18.8-10.878V244.41Z" transform="translate(-6.066 -53.541)"/>
          <path id="Path_1220" data-name="Path 1220" class="cls-35" d="M22.53,255.384v1.695L4.1,246.371V244.63Z" transform="translate(-0.898 -53.59)"/>
          <path id="Path_1221" data-name="Path 1221" class="cls-69" d="M27.69,254.013V255.7l18.8-10.878V243.08Z" transform="translate(-6.066 -53.25)"/>
          <path id="Path_1222" data-name="Path 1222" class="cls-127" d="M22.53,254.063v1.687L4.1,245.051V243.31Z" transform="translate(-0.898 -53.3)"/>
          <path id="Path_1223" data-name="Path 1223" class="cls-135" d="M4.1,240.247,22.53,251l18.8-10.933L22.889,229.33Z" transform="translate(-0.898 -50.238)"/>
          <path id="Path_1224" data-name="Path 1224" class="cls-136" d="M27.54,253.529l2.366-.539,16.556-9.91Z" transform="translate(-6.033 -53.25)"/>
          <path id="Path_1225" data-name="Path 1225" class="cls-137" d="M26.845,231.754,25,224.28l-1.382.781,1.859,7.458a45.716,45.716,0,0,1,1.328,11.066v6.341l1.382-.781v-6.427a46.3,46.3,0,0,0-1.343-10.964Z" transform="translate(-5.174 -49.132)"/>
          <path id="Path_1226" data-name="Path 1226" class="cls-138" d="M18.454,222.278,0,211.47l1.851,7.5a45.809,45.809,0,0,1,1.335,11v6.365L21.64,247.1v-6.318A46.075,46.075,0,0,0,20.3,229.7Z" transform="translate(0 -46.325)"/>
          <path id="Path_1227" data-name="Path 1227" class="cls-139" d="M0,211.251l18.454,10.808,1.374-.8L1.359,210.47Z" transform="translate(0 -46.106)"/>
          <path id="Path_1228" data-name="Path 1228" class="cls-140" d="M0,211.47l18.852,10.488L20.929,232.5l-2.741-10.207Z" transform="translate(0 -46.325)"/>
          <path id="Path_1229" data-name="Path 1229" class="cls-141" d="M58.808,197.472c1.562,1.21,2.561,5.568,1.562,8.536s-2.249,3.217-2.757,3.475-2.1,2.866-1.484,4.037-4.139.515-5.318-.461-1.2-1.39-1.2-1.39,1.226-1.9.664-3.272-2.968-6.443,0-9.918a6.248,6.248,0,0,1,8.536-1.007Z" transform="translate(-10.695 -42.987)"/>
          <path id="Path_1230" data-name="Path 1230" class="cls-142" d="M77.391,280.3c3.584.82,4.194-2.194,4.194-2.194a4.99,4.99,0,0,1-2.1-2.405l-.109-.3-3.9,1.695c.484,1.453.781,2.694.781,2.694A2.171,2.171,0,0,0,77.391,280.3Z" transform="translate(-16.533 -60.33)"/>
          <path id="Path_1231" data-name="Path 1231" class="cls-143" d="M77.391,280.3c3.584.82,4.194-2.194,4.194-2.194a4.99,4.99,0,0,1-2.1-2.405l-.109-.3-3.9,1.695c.484,1.453.781,2.694.781,2.694A2.171,2.171,0,0,0,77.391,280.3Z" transform="translate(-16.533 -60.33)"/>
          <path id="Path_1232" data-name="Path 1232" class="cls-144" d="M67.117,249.674c-.781-1.437-6.474-2.241-6.474-2.241L49.71,247.37l2.265,8.59,12.011,1.07s4.693,13.167,5.045,14.26l5.467-1.632C73.591,267.089,67.9,251.033,67.117,249.674Z" transform="translate(-10.89 -54.19)"/>
          <path id="Path_1233" data-name="Path 1233" class="cls-145" d="M75.971,279.607a3.95,3.95,0,0,0-.047,2.936,34.1,34.1,0,0,1,1.687,3.506l.976-.312-.523-2.452a6.481,6.481,0,0,1,2.577-.445c1.273.094,3.038,1.023,4.514.344s2.093-1.7,1.562-2.585-1.609-.656-2.765-.929a14.609,14.609,0,0,1-2.811-1.179,1.609,1.609,0,0,1-1.312,1.913C78.079,280.88,75.971,279.607,75.971,279.607Z" transform="translate(-16.573 -61.007)"/>
          <path id="Path_1234" data-name="Path 1234" class="cls-7" d="M39.17,289.155,56.382,299.2,76.53,287.5,59.31,277.48Z" transform="translate(-8.581 -60.786)"/>
          <path id="Path_1235" data-name="Path 1235" class="cls-146" d="M55.441,297.975a3.85,3.85,0,0,1-1.945-.523l-15.619-9.074a2.2,2.2,0,0,1,0-3.827l15.228-8.52v-8.442a.828.828,0,0,1,1.656,0v8.926a.836.836,0,0,1-.422.726L38.7,285.987a.547.547,0,0,0,0,.953l15.619,9.074a2.2,2.2,0,0,0,2.226,0L70.076,288.1v-22.8a.836.836,0,0,1,1.663,0v23.264a.828.828,0,0,1-.414.718L57.4,297.444a3.9,3.9,0,0,1-1.96.531Z" transform="translate(-8.054 -57.954)"/>
          <path id="Path_1236" data-name="Path 1236" class="cls-29" d="M55.422,297.375a3.28,3.28,0,0,1-1.663-.445L38.14,287.856a1.65,1.65,0,0,1,.023-2.866l15.509-8.684v-8.762a.281.281,0,0,1,.554,0v8.926a.273.273,0,0,1-.141.242l-15.619,8.754a1.109,1.109,0,0,0,0,1.913l15.619,9.074a2.741,2.741,0,0,0,2.78,0l13.784-8.083V265.263a.273.273,0,1,1,.547,0v23.264a.266.266,0,0,1-.133.242L57.1,296.922A3.319,3.319,0,0,1,55.422,297.375Z" transform="translate(-8.175 -58.05)"/>
          <path id="Path_1237" data-name="Path 1237" class="cls-147" d="M55.391,297.1a3.124,3.124,0,0,1-1.562-.414L38.211,287.61a1.445,1.445,0,0,1-.711-1.25,1.414,1.414,0,0,1,.734-1.234l15.619-8.746v-8.895a.055.055,0,0,1,.109,0v8.926a.055.055,0,0,1,0,.047L38.343,285.22a1.312,1.312,0,0,0,0,2.288l15.619,9.082a3.077,3.077,0,0,0,1.5.4,3.038,3.038,0,0,0,1.515-.406l13.846-8.122V265.2a.055.055,0,0,1,.109,0v23.256l-13.971,8.2A3.124,3.124,0,0,1,55.391,297.1Z" transform="translate(-8.215 -58.085)"/>
          <path id="Path_1238" data-name="Path 1238" class="cls-32" d="M59.31,274.025v1.695l18.8-10.878V263.1Z" transform="translate(-12.993 -57.636)"/>
          <path id="Path_1239" data-name="Path 1239" class="cls-35" d="M54.15,274.073v1.695L35.72,265.061V263.32Z" transform="translate(-7.825 -57.684)"/>
          <path id="Path_1240" data-name="Path 1240" class="cls-69" d="M59.31,272.7v1.687l18.8-10.878V261.77Z" transform="translate(-12.993 -57.344)"/>
          <path id="Path_1241" data-name="Path 1241" class="cls-127" d="M54.15,272.753v1.687l-18.43-10.7V262Z" transform="translate(-7.825 -57.395)"/>
          <path id="Path_1242" data-name="Path 1242" class="cls-135" d="M35.72,258.937l18.43,10.754,18.8-10.933L54.5,248.02Z" transform="translate(-7.825 -54.332)"/>
          <path id="Path_1243" data-name="Path 1243" class="cls-148" d="M59.16,272.219l2.366-.539,16.556-9.91Z" transform="translate(-12.96 -57.344)"/>
          <path id="Path_1244" data-name="Path 1244" class="cls-149" d="M88.4,290.092a57.713,57.713,0,0,1,6.638-1.929c.781-.172-4.006-1.687-4.553-3.592-.055-.18-.2-.406-.32-.781l-3.9.164c0,1.562-.133,3.9-.172,4.35C86.018,288.944,86.51,290.865,88.4,290.092Z" transform="translate(-18.857 -62.168)"/>
          <path id="Path_1245" data-name="Path 1245" class="cls-150" d="M86.068,287.339a3.927,3.927,0,0,0-.055,2.944,34.108,34.108,0,0,1,1.687,3.506l.984-.312-.523-2.452a6.467,6.467,0,0,1,2.569-.445c1.273.094,3.038,1.023,4.514.344s2.093-1.7,1.562-2.593-1.562-.648-2.757-.922a14.533,14.533,0,0,1-2.819-1.179,1.609,1.609,0,0,1-1.367,1.913C88.169,288.62,86.068,287.339,86.068,287.339Z" transform="translate(-18.783 -62.703)"/>
          <path id="Path_1246" data-name="Path 1246" class="cls-151" d="M42.526,215.55c-1.484,1.562-3.428,9.2-4.194,10.636s-3.272,5.31-.508,7.028,8.536,2.21,8.536,2.21-1.843-4.3-1.991-4.3-2.561-1.179-2.561-1.179l2.905-7.021Z" transform="translate(-8.008 -47.219)"/>
          <path id="Path_1247" data-name="Path 1247" class="cls-152" d="M82.6,258.073c0-1.125,0-3.124-2.3-3.53-1.562-.273-12.495-3.475-19.2-5.021-1.8-.414-1.14-2.577-2.093-2.671-.726-.062-14.127-.781-14.127-.781s-6.677,12.144,8.528,16.345c6.708,1.866,11.511-.3,14.635-.547,3.288-.258,7.864-.781,7.864-.781s.383,14.6.383,15.322l4.967-.82C80.983,274.84,82.6,259.2,82.6,258.073Z" transform="translate(-9.512 -53.905)"/>
          <path id="Path_1248" data-name="Path 1248" class="cls-7" d="M66.052,259.033c-4.826-.281-12.347-.742-14.939-3.124-2.163-2-1.507-7.645-1.218-9.5l-5.014-.266s-6.677,12.089,8.528,16.29c6.708,1.866,11.511-.3,14.635-.547,3.288-.258,7.864-.781,7.864-.781l1.374-2.21S70.878,259.307,66.052,259.033Z" transform="translate(-9.512 -53.92)"/>
          <path id="Path_1249" data-name="Path 1249" class="cls-153" d="M49.338,213.654s-2.968-1.273-4.912.461-1.562,3.53-1.273,6.9c.383,5.115,2.554,10.379,2.757,12.675s-2.054,8.192-2.054,8.192.914,1.437,6.083,1.945,10.777-2.436,10.777-2.436-1.812-7.138-1.757-8.668,1.562-3.834,1.726-6.49.2-6.646-1.788-7.926a31.1,31.1,0,0,1-3.421-2.554,9.214,9.214,0,0,1-3.725-.156A3.061,3.061,0,0,1,49.338,213.654Z" transform="translate(-9.401 -46.705)"/>
          <path id="Path_1250" data-name="Path 1250" class="cls-7" d="M62.068,234.3c.047-1.562,1.562-3.834,1.726-6.49.141-2.343.187-5.787-1.21-7.411h0c-2.085.133-4.373.414-5.115,2.952-.672,2.28-.3,10.55.219,14.931.164,1.335.781,4.756,1.078,6.568a25.951,25.951,0,0,0,5.06-1.882S62.013,235.831,62.068,234.3Z" transform="translate(-12.509 -48.282)"/>
          <path id="Path_1251" data-name="Path 1251" class="cls-154" d="M59.783,201.1s-1.468,2.593-2.437,3-.836,2.343-.734,2.96a10.855,10.855,0,0,1-.141,2.7c-.781,2.679-1.562,3.272-3.186,9.84a36.7,36.7,0,0,0-.469,6.888c0,2.4-9.137-.843-9.137-3.819,0-1.913,1.109-5.724,1.562-8.528a92,92,0,0,0,1.054-9.926c.266-4.248,2.343-8.778,7.028-8.465C59.549,196.16,59.783,201.1,59.783,201.1Z" transform="translate(-9.569 -42.877)"/>
          <path id="Path_1252" data-name="Path 1252" class="cls-155" d="M81.788,251.4a7.152,7.152,0,0,0,1.663.3,7.1,7.1,0,0,1,2.7.586A1.929,1.929,0,0,1,86.7,255.1c-.843,1.515-1.617,1.468-2.718.875s-3.592-1.71-3.592-1.71Z" transform="translate(-17.611 -55.073)"/>
          <path id="Path_1253" data-name="Path 1253" class="cls-156" d="M81.167,250.67l1.234.445-1.531,3.522-1.39-.672Z" transform="translate(-17.411 -54.913)"/>
          <path id="Path_1254" data-name="Path 1254" class="cls-157" d="M61.053,220.11c-2.866,0-4.842,2.952-2.663,9.371s3.124,11.972,5.513,13.44,11.5,4.748,11.5,4.748l1.4-3.678s-8.254-3.085-9.285-5.7a71.535,71.535,0,0,1-2.538-9.9C64.481,225.842,65.192,220.126,61.053,220.11Z" transform="translate(-12.588 -48.218)"/>
          <path id="Path_1255" data-name="Path 1255" class="cls-158" d="M58.463,250.45,56.612,243l-1.382.781,1.843,7.435a46.075,46.075,0,0,1,1.343,11.042V268.6l1.382-.781v-6.427A46.3,46.3,0,0,0,58.463,250.45Z" transform="translate(-12.099 -53.233)"/>
          <path id="Path_1256" data-name="Path 1256" class="cls-159" d="M50.074,240.968,31.62,230.16l1.859,7.5a46.208,46.208,0,0,1,1.335,11v6.365l18.454,10.761v-6.349A46.071,46.071,0,0,0,51.925,248.4Z" transform="translate(-6.927 -50.42)"/>
          <path id="Path_1257" data-name="Path 1257" class="cls-139" d="M31.62,229.941l18.454,10.808,1.374-.8L32.979,229.16Z" transform="translate(-6.927 -50.201)"/>
          <path id="Path_1258" data-name="Path 1258" class="cls-160" d="M31.62,230.16l18.852,10.488,2.069,10.543-2.733-10.207Z" transform="translate(-6.927 -50.42)"/>
          <ellipse id="Ellipse_48" data-name="Ellipse 48" class="cls-7" cx="6.966" cy="16.946" rx="6.966" ry="16.946" transform="translate(214.793 188.793) rotate(-74.73)"/>
          <path id="Path_1259" data-name="Path 1259" class="cls-161" d="M285.71,227.17l4.061.32s1.07,3.733.125,4.451a34.658,34.658,0,0,1-3.9,2.077c-2.069,1.125-3.834,1.507-5.146.7s-1.054-1.718.578-2.819S285.554,229.38,285.71,227.17Z" transform="translate(-61.34 -49.765)"/>
          <path id="Path_1260" data-name="Path 1260" class="cls-162" d="M309.746,235.808l3.819-.078s.07,3.233.07,4.3-.781,1.492-1.562,2.233a4.436,4.436,0,0,1-3.186,1.562c-1.437.1-3.389-.336-2.889-1.788s2.686-2.647,2.952-3.444C309.254,237.7,309.746,235.808,309.746,235.808Z" transform="translate(-67.016 -51.64)"/>
          <path id="Path_1261" data-name="Path 1261" class="cls-163" d="M286.023,213.221l5.552.414s1.749-14.416,1.976-16.564a58.842,58.842,0,0,0-.57-8.255l2.507-15.783s4.092,21.6,4.342,23.124S304,220.14,304,220.14l5.521.109s-.781-12.964-1.437-17.407a107.848,107.848,0,0,1-.961-16.759c.187-4.42-.125-14.057-.937-17.485s-1.5-8.145-1.5-8.145L287.1,158.11s-2.718,10.332-2.218,19.453.843,13.518.968,19.289S286.023,213.221,286.023,213.221Z" transform="translate(-62.394 -34.636)"/>
          <path id="Path_1262" data-name="Path 1262" class="cls-164" d="M266.291,100.076a10.936,10.936,0,0,0-1.812-1.562c-1-.664-2.819-1.96-3.444-3.647s-1.437-3.389-1.062-4.037,2.882-1.609,3.819-.2,3.756,4.545,4.069,5.513a5.623,5.623,0,0,0,1.062,1.788Z" transform="translate(-56.93 -19.694)"/>
          <path id="Path_1263" data-name="Path 1263" class="cls-165" d="M266.19,101.913l3.7-2.913,9.426,10.152a58.75,58.75,0,0,0,5.076,4.834l4.725,3.342-5.99,7.028s-4.842-6.911-6.825-9.723C275.413,113.424,266.19,101.913,266.19,101.913Z" transform="translate(-58.313 -21.687)"/>
          <path id="Path_1264" data-name="Path 1264" class="cls-166" d="M292.92,121.221c-1.82-.234-4.045.711-5.24,4.6s.312,12.175,0,15.9-1.32,11.589-1.32,11.589l19.844,3.077s-.648-9.371.476-13.088,4.795-11.175,4.045-13.276-1.851-2.944-4.006-4.444a40.653,40.653,0,0,0-5.873-2.952Z" transform="translate(-62.731 -26.548)"/>
          <path id="Path_1265" data-name="Path 1265" class="cls-167" d="M293.976,131.042l4.069-1.562,2.405,2.413,3.171-1.89-4.49,13.479-5.631-.664Z" transform="translate(-64.295 -28.364)"/>
          <path id="Path_1266" data-name="Path 1266" class="cls-168" d="M298.582,129.48l.851.8-.617.664-.836,19.141-1.132,5.107-.9-5.06,1.874-19.234-.383-.992Z" transform="translate(-64.832 -28.364)"/>
          <path id="Path_1267" data-name="Path 1267" class="cls-169" d="M310.685,129.886c-.781-2.069-1.843-2.944-4.006-4.444a42.067,42.067,0,0,0-6.38-3.046l-8.122-2.343c-1.812-.234-4.108,1.617-5.295,5.506s.164,11.222-.148,14.947-2.874,18.469-2.874,18.469l2.921.4a5.568,5.568,0,0,0,6.123-4.084,33.239,33.239,0,0,0,.851-8.356c0-6.31-2.4-19.289.125-22.756,1.234-1.7,6.115-1.773,7.38-1.14s1.8.734.125,3.592c-2.4,4.1-6.536,13.276-6.247,20.3a48.279,48.279,0,0,0,.968,9.434,5.568,5.568,0,0,0,5.779,4.2l5.623-.39s-1.562-12-.882-16.712C307.194,139.64,311.435,131.964,310.685,129.886Z" transform="translate(-62.183 -26.295)"/>
          <path id="Path_1268" data-name="Path 1268" class="cls-170" d="M297.208,105.488c-2.483.133-4.326,1.257-4.928,5.631s-.328,6.451.609,7.028,2.1.266,2.85,1.656a3.171,3.171,0,0,1,.39,1.8c-.047.5,1.484,2.405,1.484,2.405s2.819-1.062,3.733-1.421a6.005,6.005,0,0,0,2.39-1.492s-1.413-2.437-1.367-3.46,2.257-4.811,1.367-7.762S299.418,105.363,297.208,105.488Z" transform="translate(-63.958 -23.107)"/>
          <path id="Path_1269" data-name="Path 1269" class="cls-171" d="M293.676,105.47a1.906,1.906,0,0,0,.562,3.413,5.67,5.67,0,0,1,2.616,1.312,11.191,11.191,0,0,0,2.444,2.171s1.374-1.062,2.343-.148-.375,3.124-.375,3.124l1.4,1.671s2.757-3.8,2.28-7.028C304.234,105.041,297.776,102.713,293.676,105.47Z" transform="translate(-64.151 -22.847)"/>
          <path id="Path_1270" data-name="Path 1270" class="cls-7" d="M306.748,163.006l5.623-.383s-1.562-12-.882-16.712c.578-3.834,4.818-11.511,4.069-13.588-.414-1.156-6.247-1.945-6.654.094-1.07,4.982-2.265,8.325-1.64,16.525.406,5.256-.718,10.808-1.164,14.057A6.011,6.011,0,0,0,306.748,163.006Z" transform="translate(-67.055 -28.732)"/>
          <path id="Path_1271" data-name="Path 1271" class="cls-172" d="M310.912,165.28a9.574,9.574,0,0,0-2.554,1.96,9.449,9.449,0,0,0-1.562,4.514c-.047,1.32,0,2.858,1.335,3.124s2.148-.929,2.452-2.023a24.023,24.023,0,0,1,2.343-4.022,4.272,4.272,0,0,0,.461-1.492Z" transform="translate(-67.206 -36.207)"/>
          <path id="Path_1272" data-name="Path 1272" class="cls-173" d="M311.1,129.718c-1.562.906-2.3,4.147-.3,6.966s7.7,9.559,7.7,9.559l-7.559,11.363,3.733,2.647s7.872-9.114,8.434-9.934,1.937-2.507,1.062-4.155-6.318-12.386-7.255-14.143C315.468,129.312,313.547,128.281,311.1,129.718Z" transform="translate(-67.818 -28.274)"/>
          <path id="Path_1273" data-name="Path 1273" class="cls-7" d="M296.155,171.85s-3.342,15.322-3.342,18.219.945,8.012.508,11.23c-.328,2.343-1.414,10.933-1.96,15.22l1.648.125s1.749-14.416,1.976-16.564a58.837,58.837,0,0,0-.57-8.255l2.507-15.783Z" transform="translate(-63.826 -37.646)"/>
        </g>
      </g>
    </g>
  </g>
</svg>
